solid FM1 mount_v1
facet normal 0.0 0.0 -1.0
  outer loop
    vertex 15.25716185079872 -80.16657702836828 0.0
    vertex 9.74244322503729 -97.13713977684542 0.0
    vertex 9.74244322503729 -80.16657702836828 0.0
  endloop
endfacet
facet normal 0.0 0.0 -1.0
  outer loop
    vertex 9.74244322503729 -97.13713977684542 0.0
    vertex 15.25716185079872 -80.16657702836828 0.0
    vertex 14.74244322503729 -88.65185840260685 0.0
  endloop
endfacet
facet normal 0.0 0.0 -1.0
  outer loop
    vertex 14.74244322503729 -88.65185840260685 0.0
    vertex 15.25716185079872 -80.16657702836828 0.0
    vertex 15.049110788435675 -86.32248699668416 0.0
  endloop
endfacet
facet normal 0.0 0.0 -1.0
  outer loop
    vertex 15.049110788435675 -86.32248699668416 0.0
    vertex 15.25716185079872 -80.16657702836828 0.0
    vertex 15.948214590977344 -84.15185840260685 0.0
  endloop
endfacet
facet normal 0.0 0.0 -1.0
  outer loop
    vertex 15.948214590977344 -84.15185840260685 0.0
    vertex 15.25716185079872 -80.16657702836828 0.0
    vertex 17.74244322503729 -78.25955355719358 0.0
  endloop
endfacet
facet normal 0.0 0.0 -1.0
  outer loop
    vertex 15.948214590977344 -84.15185840260685 0.0
    vertex 17.74244322503729 -78.25955355719358 0.0
    vertex 17.378482194358362 -82.28789737192791 0.0
  endloop
endfacet
facet normal 0.0 0.0 -1.0
  outer loop
    vertex 17.378482194358362 -82.28789737192791 0.0
    vertex 17.74244322503729 -78.25955355719358 0.0
    vertex 19.24244322503729 -80.8576297685469 0.0
  endloop
endfacet
facet normal 0.0 0.0 -1.0
  outer loop
    vertex 19.24244322503729 -80.8576297685469 0.0
    vertex 17.74244322503729 -78.25955355719358 0.0
    vertex 20.636614683807043 -77.06074848713803 0.0
  endloop
endfacet
facet normal 0.0 0.0 -1.0
  outer loop
    vertex 19.24244322503729 -80.8576297685469 0.0
    vertex 20.636614683807043 -77.06074848713803 0.0
    vertex 21.413071819114606 -79.95852596600524 0.0
  endloop
endfacet
facet normal 0.0 0.0 -1.0
  outer loop
    vertex 21.413071819114606 -79.95852596600524 0.0
    vertex 20.636614683807043 -77.06074848713803 0.0
    vertex 23.74244322503729 -76.65185840260685 0.0
  endloop
endfacet
facet normal 0.0 0.0 -1.0
  outer loop
    vertex 21.413071819114606 -79.95852596600524 0.0
    vertex 23.74244322503729 -76.65185840260685 0.0
    vertex 23.74244322503729 -79.65185840260685 0.0
  endloop
endfacet
facet normal 0.0 0.0 -1.0
  outer loop
    vertex 23.74244322503729 -79.65185840260685 0.0
    vertex 23.74244322503729 -76.65185840260685 0.0
    vertex 26.84827176626754 -77.06074848713803 0.0
  endloop
endfacet
facet normal 0.0 0.0 -1.0
  outer loop
    vertex 23.74244322503729 -79.65185840260685 0.0
    vertex 26.84827176626754 -77.06074848713803 0.0
    vertex 26.071814630959977 -79.95852596600524 0.0
  endloop
endfacet
facet normal 0.0 0.0 -1.0
  outer loop
    vertex 26.071814630959977 -79.95852596600524 0.0
    vertex 26.84827176626754 -77.06074848713803 0.0
    vertex 28.24244322503729 -80.8576297685469 0.0
  endloop
endfacet
facet normal 0.0 0.0 -1.0
  outer loop
    vertex 28.24244322503729 -80.8576297685469 0.0
    vertex 26.84827176626754 -77.06074848713803 0.0
    vertex 29.74244322503729 -78.2595535571936 0.0
  endloop
endfacet
facet normal 0.0 0.0 -1.0
  outer loop
    vertex 28.24244322503729 -80.8576297685469 0.0
    vertex 29.74244322503729 -78.2595535571936 0.0
    vertex 30.106404255716217 -82.28789737192791 0.0
  endloop
endfacet
facet normal 0.0 0.0 -1.0
  outer loop
    vertex 30.106404255716217 -82.28789737192791 0.0
    vertex 29.74244322503729 -78.2595535571936 0.0
    vertex 32.22772459927586 -80.16657702836828 0.0
  endloop
endfacet
facet normal 0.0 0.0 -1.0
  outer loop
    vertex 30.106404255716217 -82.28789737192791 0.0
    vertex 32.22772459927586 -80.16657702836828 0.0
    vertex 31.536671859097236 -84.15185840260685 0.0
  endloop
endfacet
facet normal 0.0 0.0 -1.0
  outer loop
    vertex 31.536671859097236 -84.15185840260685 0.0
    vertex 32.22772459927586 -80.16657702836828 0.0
    vertex 32.43577566163891 -86.32248699668416 0.0
  endloop
endfacet
facet normal 0.0 0.0 -1.0
  outer loop
    vertex 32.43577566163891 -86.32248699668416 0.0
    vertex 32.22772459927586 -80.16657702836828 0.0
    vertex 37.74244322503729 -80.16657702836828 0.0
  endloop
endfacet
facet normal 0.0 0.0 -1.0
  outer loop
    vertex 32.43577566163891 -86.32248699668416 0.0
    vertex 37.74244322503729 -80.16657702836828 0.0
    vertex 32.74244322503729 -88.65185840260685 0.0
  endloop
endfacet
facet normal 0.0 0.0 -1.0
  outer loop
    vertex 14.74244322503729 -88.65185840260685 0.0
    vertex 15.257161850798715 -97.13713977684542 0.0
    vertex 9.74244322503729 -97.13713977684542 0.0
  endloop
endfacet
facet normal 0.0 0.0 -1.0
  outer loop
    vertex 15.257161850798715 -97.13713977684542 0.0
    vertex 14.74244322503729 -88.65185840260685 0.0
    vertex 15.049110788435675 -90.98122980852953 0.0
  endloop
endfacet
facet normal 0.0 0.0 -1.0
  outer loop
    vertex 15.257161850798715 -97.13713977684542 0.0
    vertex 15.049110788435675 -90.98122980852953 0.0
    vertex 15.94821459097734 -93.15185840260685 0.0
  endloop
endfacet
facet normal 0.0 0.0 -1.0
  outer loop
    vertex 15.257161850798715 -97.13713977684542 0.0
    vertex 15.94821459097734 -93.15185840260685 0.0
    vertex 17.742443225037285 -99.04416324802011 0.0
  endloop
endfacet
facet normal 0.0 0.0 -1.0
  outer loop
    vertex 17.742443225037285 -99.04416324802011 0.0
    vertex 15.94821459097734 -93.15185840260685 0.0
    vertex 17.37848219435836 -95.01581943328577 0.0
  endloop
endfacet
facet normal 0.0 0.0 -1.0
  outer loop
    vertex 17.742443225037285 -99.04416324802011 0.0
    vertex 17.37848219435836 -95.01581943328577 0.0
    vertex 19.242443225037288 -96.4460870366668 0.0
  endloop
endfacet
facet normal 0.0 0.0 -1.0
  outer loop
    vertex 17.742443225037285 -99.04416324802011 0.0
    vertex 19.242443225037288 -96.4460870366668 0.0
    vertex 20.636614683807032 -100.24296831807567 0.0
  endloop
endfacet
facet normal 0.0 0.0 -1.0
  outer loop
    vertex 20.636614683807032 -100.24296831807567 0.0
    vertex 19.242443225037288 -96.4460870366668 0.0
    vertex 21.413071819114595 -97.34519083920847 0.0
  endloop
endfacet
facet normal 0.0 0.0 -1.0
  outer loop
    vertex 20.636614683807032 -100.24296831807567 0.0
    vertex 21.413071819114595 -97.34519083920847 0.0
    vertex 23.742443225037288 -100.65185840260685 0.0
  endloop
endfacet
facet normal 0.0 0.0 -1.0
  outer loop
    vertex 23.742443225037288 -100.65185840260685 0.0
    vertex 21.413071819114595 -97.34519083920847 0.0
    vertex 23.742443225037288 -97.65185840260686 0.0
  endloop
endfacet
facet normal 0.0 0.0 -1.0
  outer loop
    vertex 23.742443225037288 -100.65185840260685 0.0
    vertex 23.742443225037288 -97.65185840260686 0.0
    vertex 26.071814630959974 -97.34519083920847 0.0
  endloop
endfacet
facet normal 0.0 0.0 -1.0
  outer loop
    vertex 23.742443225037288 -100.65185840260685 0.0
    vertex 26.071814630959974 -97.34519083920847 0.0
    vertex 26.848271766267533 -100.24296831807567 0.0
  endloop
endfacet
facet normal 0.0 0.0 -1.0
  outer loop
    vertex 26.848271766267533 -100.24296831807567 0.0
    vertex 26.071814630959974 -97.34519083920847 0.0
    vertex 28.24244322503728 -96.4460870366668 0.0
  endloop
endfacet
facet normal 0.0 0.0 -1.0
  outer loop
    vertex 26.848271766267533 -100.24296831807567 0.0
    vertex 28.24244322503728 -96.4460870366668 0.0
    vertex 29.742443225037277 -99.04416324802013 0.0
  endloop
endfacet
facet normal 0.0 0.0 -1.0
  outer loop
    vertex 29.742443225037277 -99.04416324802013 0.0
    vertex 28.24244322503728 -96.4460870366668 0.0
    vertex 30.106404255716217 -95.01581943328578 0.0
  endloop
endfacet
facet normal 0.0 0.0 -1.0
  outer loop
    vertex 29.742443225037277 -99.04416324802013 0.0
    vertex 30.106404255716217 -95.01581943328578 0.0
    vertex 32.22772459927586 -97.13713977684542 0.0
  endloop
endfacet
facet normal 0.0 0.0 -1.0
  outer loop
    vertex 32.22772459927586 -97.13713977684542 0.0
    vertex 30.106404255716217 -95.01581943328578 0.0
    vertex 31.536671859097236 -93.15185840260685 0.0
  endloop
endfacet
facet normal 0.0 0.0 -1.0
  outer loop
    vertex 32.22772459927586 -97.13713977684542 0.0
    vertex 31.536671859097236 -93.15185840260685 0.0
    vertex 32.43577566163891 -90.98122980852955 0.0
  endloop
endfacet
facet normal 0.0 0.0 -1.0
  outer loop
    vertex 32.22772459927586 -97.13713977684542 0.0
    vertex 32.43577566163891 -90.98122980852955 0.0
    vertex 37.74244322503729 -97.13713977684542 0.0
  endloop
endfacet
facet normal 0.0 0.0 -1.0
  outer loop
    vertex 37.74244322503729 -97.13713977684542 0.0
    vertex 32.43577566163891 -90.98122980852955 0.0
    vertex 32.74244322503729 -88.65185840260685 0.0
  endloop
endfacet
facet normal 0.0 0.0 -1.0
  outer loop
    vertex 37.74244322503729 -97.13713977684542 0.0
    vertex 32.74244322503729 -88.65185840260685 0.0
    vertex 37.74244322503729 -80.16657702836828 0.0
  endloop
endfacet
facet normal 0.6087614290087202 0.7933533402912357 -0.0
  outer loop
    vertex 29.74244322503729 -78.2595535571936 10.0
    vertex 32.22772459927586 -80.16657702836828 0.0
    vertex 29.74244322503729 -78.2595535571936 0.0
  endloop
endfacet
facet normal 0.6087614290087202 0.7933533402912357 -0.0
  outer loop
    vertex 32.22772459927586 -80.16657702836828 0.0
    vertex 29.74244322503729 -78.2595535571936 10.0
    vertex 32.22772459927586 -80.16657702836828 10.0
  endloop
endfacet
facet normal 0.6087614290087207 -0.7933533402912352 0.0
  outer loop
    vertex 32.22772459927586 -97.13713977684542 10.0
    vertex 29.742443225037277 -99.04416324802013 0.0
    vertex 32.22772459927586 -97.13713977684542 0.0
  endloop
endfacet
facet normal 0.6087614290087207 -0.7933533402912352 0.0
  outer loop
    vertex 29.742443225037277 -99.04416324802013 0.0
    vertex 32.22772459927586 -97.13713977684542 10.0
    vertex 29.742443225037277 -99.04416324802013 10.0
  endloop
endfacet
facet normal 0.3826834323650889 -0.9238795325112872 0.0
  outer loop
    vertex 29.742443225037277 -99.04416324802013 10.0
    vertex 26.848271766267533 -100.24296831807567 0.0
    vertex 29.742443225037277 -99.04416324802013 0.0
  endloop
endfacet
facet normal 0.3826834323650889 -0.9238795325112872 0.0
  outer loop
    vertex 26.848271766267533 -100.24296831807567 0.0
    vertex 29.742443225037277 -99.04416324802013 10.0
    vertex 26.848271766267533 -100.24296831807567 10.0
  endloop
endfacet
facet normal 0.1305261922200518 -0.9914448613738104 0.0
  outer loop
    vertex 26.848271766267533 -100.24296831807567 10.0
    vertex 23.742443225037288 -100.65185840260685 0.0
    vertex 26.848271766267533 -100.24296831807567 0.0
  endloop
endfacet
facet normal 0.1305261922200518 -0.9914448613738104 0.0
  outer loop
    vertex 23.742443225037288 -100.65185840260685 0.0
    vertex 26.848271766267533 -100.24296831807567 10.0
    vertex 23.742443225037288 -100.65185840260685 10.0
  endloop
endfacet
facet normal -0.13052619222005146 -0.9914448613738105 -0.0
  outer loop
    vertex 23.742443225037288 -100.65185840260685 10.0
    vertex 20.636614683807032 -100.24296831807567 0.0
    vertex 23.742443225037288 -100.65185840260685 0.0
  endloop
endfacet
facet normal -0.13052619222005146 -0.9914448613738105 -0.0
  outer loop
    vertex 20.636614683807032 -100.24296831807567 0.0
    vertex 23.742443225037288 -100.65185840260685 10.0
    vertex 20.636614683807032 -100.24296831807567 10.0
  endloop
endfacet
facet normal -0.38268343236509167 -0.9238795325112861 -0.0
  outer loop
    vertex 20.636614683807032 -100.24296831807567 10.0
    vertex 17.742443225037285 -99.04416324802011 0.0
    vertex 20.636614683807032 -100.24296831807567 0.0
  endloop
endfacet
facet normal -0.38268343236509167 -0.9238795325112861 -0.0
  outer loop
    vertex 17.742443225037285 -99.04416324802011 0.0
    vertex 20.636614683807032 -100.24296831807567 10.0
    vertex 17.742443225037285 -99.04416324802011 10.0
  endloop
endfacet
facet normal -0.6087614290087202 -0.7933533402912357 0.0
  outer loop
    vertex 17.742443225037285 -99.04416324802011 10.0
    vertex 15.257161850798715 -97.13713977684542 0.0
    vertex 17.742443225037285 -99.04416324802011 0.0
  endloop
endfacet
facet normal -0.6087614290087202 -0.7933533402912357 0.0
  outer loop
    vertex 15.257161850798715 -97.13713977684542 0.0
    vertex 17.742443225037285 -99.04416324802011 10.0
    vertex 15.257161850798715 -97.13713977684542 10.0
  endloop
endfacet
facet normal -0.6087614290087219 0.7933533402912342 -0.0
  outer loop
    vertex 15.25716185079872 -80.16657702836828 10.0
    vertex 17.74244322503729 -78.25955355719358 0.0
    vertex 15.25716185079872 -80.16657702836828 0.0
  endloop
endfacet
facet normal -0.6087614290087219 0.7933533402912342 -0.0
  outer loop
    vertex 17.74244322503729 -78.25955355719358 0.0
    vertex 15.25716185079872 -80.16657702836828 10.0
    vertex 17.74244322503729 -78.25955355719358 10.0
  endloop
endfacet
facet normal -0.3826834323650882 0.9238795325112874 0.0
  outer loop
    vertex 17.74244322503729 -78.25955355719358 10.0
    vertex 20.636614683807043 -77.06074848713803 0.0
    vertex 17.74244322503729 -78.25955355719358 0.0
  endloop
endfacet
facet normal -0.3826834323650882 0.9238795325112874 0.0
  outer loop
    vertex 20.636614683807043 -77.06074848713803 0.0
    vertex 17.74244322503729 -78.25955355719358 10.0
    vertex 20.636614683807043 -77.06074848713803 10.0
  endloop
endfacet
facet normal -0.1305261922200518 0.9914448613738104 0.0
  outer loop
    vertex 20.636614683807043 -77.06074848713803 10.0
    vertex 23.74244322503729 -76.65185840260685 0.0
    vertex 20.636614683807043 -77.06074848713803 0.0
  endloop
endfacet
facet normal -0.1305261922200518 0.9914448613738104 0.0
  outer loop
    vertex 23.74244322503729 -76.65185840260685 0.0
    vertex 20.636614683807043 -77.06074848713803 10.0
    vertex 23.74244322503729 -76.65185840260685 10.0
  endloop
endfacet
facet normal 0.13052619222005168 0.9914448613738105 0.0
  outer loop
    vertex 23.74244322503729 -76.65185840260685 10.0
    vertex 26.84827176626754 -77.06074848713803 0.0
    vertex 23.74244322503729 -76.65185840260685 0.0
  endloop
endfacet
facet normal 0.13052619222005168 0.9914448613738105 0.0
  outer loop
    vertex 26.84827176626754 -77.06074848713803 0.0
    vertex 23.74244322503729 -76.65185840260685 10.0
    vertex 26.84827176626754 -77.06074848713803 10.0
  endloop
endfacet
facet normal 0.38268343236509134 0.9238795325112862 0.0
  outer loop
    vertex 26.84827176626754 -77.06074848713803 10.0
    vertex 29.74244322503729 -78.2595535571936 0.0
    vertex 26.84827176626754 -77.06074848713803 0.0
  endloop
endfacet
facet normal 0.38268343236509134 0.9238795325112862 0.0
  outer loop
    vertex 29.74244322503729 -78.2595535571936 0.0
    vertex 26.84827176626754 -77.06074848713803 10.0
    vertex 29.74244322503729 -78.2595535571936 10.0
  endloop
endfacet
facet normal -0.9238795325112872 -0.382683432365089 -0.0
  outer loop
    vertex 31.536671859097236 -84.15185840260685 10.0
    vertex 32.43577566163891 -86.32248699668416 0.0
    vertex 32.43577566163891 -86.32248699668416 10.0
  endloop
endfacet
facet normal -0.9238795325112872 -0.382683432365089 -0.0
  outer loop
    vertex 32.43577566163891 -86.32248699668416 0.0
    vertex 31.536671859097236 -84.15185840260685 10.0
    vertex 31.536671859097236 -84.15185840260685 0.0
  endloop
endfacet
facet normal -0.7933533402912354 -0.6087614290087203 -0.0
  outer loop
    vertex 30.106404255716217 -82.28789737192791 10.0
    vertex 31.536671859097236 -84.15185840260685 0.0
    vertex 31.536671859097236 -84.15185840260685 10.0
  endloop
endfacet
facet normal -0.7933533402912354 -0.6087614290087203 -0.0
  outer loop
    vertex 31.536671859097236 -84.15185840260685 0.0
    vertex 30.106404255716217 -82.28789737192791 10.0
    vertex 30.106404255716217 -82.28789737192791 0.0
  endloop
endfacet
facet normal -0.60876142900872 -0.7933533402912357 -0.0
  outer loop
    vertex 30.106404255716217 -82.28789737192791 10.0
    vertex 28.24244322503729 -80.8576297685469 0.0
    vertex 30.106404255716217 -82.28789737192791 0.0
  endloop
endfacet
facet normal -0.60876142900872 -0.7933533402912357 -0.0
  outer loop
    vertex 28.24244322503729 -80.8576297685469 0.0
    vertex 30.106404255716217 -82.28789737192791 10.0
    vertex 28.24244322503729 -80.8576297685469 10.0
  endloop
endfacet
facet normal -0.38268343236508984 -0.9238795325112867 -0.0
  outer loop
    vertex 28.24244322503729 -80.8576297685469 10.0
    vertex 26.071814630959977 -79.95852596600524 0.0
    vertex 28.24244322503729 -80.8576297685469 0.0
  endloop
endfacet
facet normal -0.38268343236508984 -0.9238795325112867 -0.0
  outer loop
    vertex 26.071814630959977 -79.95852596600524 0.0
    vertex 28.24244322503729 -80.8576297685469 10.0
    vertex 26.071814630959977 -79.95852596600524 10.0
  endloop
endfacet
facet normal -0.13052619222005404 -0.9914448613738102 -0.0
  outer loop
    vertex 26.071814630959977 -79.95852596600524 10.0
    vertex 23.74244322503729 -79.65185840260685 0.0
    vertex 26.071814630959977 -79.95852596600524 0.0
  endloop
endfacet
facet normal -0.13052619222005404 -0.9914448613738102 -0.0
  outer loop
    vertex 23.74244322503729 -79.65185840260685 0.0
    vertex 26.071814630959977 -79.95852596600524 10.0
    vertex 23.74244322503729 -79.65185840260685 10.0
  endloop
endfacet
facet normal 0.13052619222005418 -0.99144486137381 0.0
  outer loop
    vertex 23.74244322503729 -79.65185840260685 10.0
    vertex 21.413071819114606 -79.95852596600524 0.0
    vertex 23.74244322503729 -79.65185840260685 0.0
  endloop
endfacet
facet normal 0.13052619222005418 -0.99144486137381 0.0
  outer loop
    vertex 21.413071819114606 -79.95852596600524 0.0
    vertex 23.74244322503729 -79.65185840260685 10.0
    vertex 21.413071819114606 -79.95852596600524 10.0
  endloop
endfacet
facet normal 0.3826834323650903 -0.9238795325112865 0.0
  outer loop
    vertex 21.413071819114606 -79.95852596600524 10.0
    vertex 19.24244322503729 -80.8576297685469 0.0
    vertex 21.413071819114606 -79.95852596600524 0.0
  endloop
endfacet
facet normal 0.3826834323650903 -0.9238795325112865 0.0
  outer loop
    vertex 19.24244322503729 -80.8576297685469 0.0
    vertex 21.413071819114606 -79.95852596600524 10.0
    vertex 19.24244322503729 -80.8576297685469 10.0
  endloop
endfacet
facet normal 0.6087614290087189 -0.7933533402912365 0.0
  outer loop
    vertex 19.24244322503729 -80.8576297685469 10.0
    vertex 17.378482194358362 -82.28789737192791 0.0
    vertex 19.24244322503729 -80.8576297685469 0.0
  endloop
endfacet
facet normal 0.6087614290087189 -0.7933533402912365 0.0
  outer loop
    vertex 17.378482194358362 -82.28789737192791 0.0
    vertex 19.24244322503729 -80.8576297685469 10.0
    vertex 17.378482194358362 -82.28789737192791 10.0
  endloop
endfacet
facet normal 0.7933533402912354 -0.6087614290087203 0.0
  outer loop
    vertex 17.378482194358362 -82.28789737192791 0.0
    vertex 15.948214590977344 -84.15185840260685 10.0
    vertex 15.948214590977344 -84.15185840260685 0.0
  endloop
endfacet
facet normal 0.7933533402912354 -0.6087614290087203 0.0
  outer loop
    vertex 15.948214590977344 -84.15185840260685 10.0
    vertex 17.378482194358362 -82.28789737192791 0.0
    vertex 17.378482194358362 -82.28789737192791 10.0
  endloop
endfacet
facet normal 0.9238795325112865 -0.3826834323650908 0.0
  outer loop
    vertex 15.948214590977344 -84.15185840260685 0.0
    vertex 15.049110788435675 -86.32248699668416 10.0
    vertex 15.049110788435675 -86.32248699668416 0.0
  endloop
endfacet
facet normal 0.9238795325112865 -0.3826834323650908 0.0
  outer loop
    vertex 15.049110788435675 -86.32248699668416 10.0
    vertex 15.948214590977344 -84.15185840260685 0.0
    vertex 15.948214590977344 -84.15185840260685 10.0
  endloop
endfacet
facet normal 0.9914448613738104 -0.13052619222005135 0.0
  outer loop
    vertex 15.049110788435675 -86.32248699668416 0.0
    vertex 14.74244322503729 -88.65185840260685 10.0
    vertex 14.74244322503729 -88.65185840260685 0.0
  endloop
endfacet
facet normal 0.9914448613738104 -0.13052619222005135 0.0
  outer loop
    vertex 14.74244322503729 -88.65185840260685 10.0
    vertex 15.049110788435675 -86.32248699668416 0.0
    vertex 15.049110788435675 -86.32248699668416 10.0
  endloop
endfacet
facet normal 0.9914448613738105 0.13052619222005202 0.0
  outer loop
    vertex 14.74244322503729 -88.65185840260685 0.0
    vertex 15.049110788435675 -90.98122980852953 10.0
    vertex 15.049110788435675 -90.98122980852953 0.0
  endloop
endfacet
facet normal 0.9914448613738105 0.13052619222005202 0.0
  outer loop
    vertex 15.049110788435675 -90.98122980852953 10.0
    vertex 14.74244322503729 -88.65185840260685 0.0
    vertex 14.74244322503729 -88.65185840260685 10.0
  endloop
endfacet
facet normal 0.9238795325112868 0.3826834323650897 0.0
  outer loop
    vertex 15.049110788435675 -90.98122980852953 0.0
    vertex 15.94821459097734 -93.15185840260685 10.0
    vertex 15.94821459097734 -93.15185840260685 0.0
  endloop
endfacet
facet normal 0.9238795325112868 0.3826834323650897 0.0
  outer loop
    vertex 15.94821459097734 -93.15185840260685 10.0
    vertex 15.049110788435675 -90.98122980852953 0.0
    vertex 15.049110788435675 -90.98122980852953 10.0
  endloop
endfacet
facet normal 0.793353340291236 0.6087614290087197 0.0
  outer loop
    vertex 15.94821459097734 -93.15185840260685 0.0
    vertex 17.37848219435836 -95.01581943328577 10.0
    vertex 17.37848219435836 -95.01581943328577 0.0
  endloop
endfacet
facet normal 0.793353340291236 0.6087614290087197 0.0
  outer loop
    vertex 17.37848219435836 -95.01581943328577 10.0
    vertex 15.94821459097734 -93.15185840260685 0.0
    vertex 15.94821459097734 -93.15185840260685 10.0
  endloop
endfacet
facet normal 0.6087614290087219 0.7933533402912343 0.0
  outer loop
    vertex 17.37848219435836 -95.01581943328577 10.0
    vertex 19.242443225037288 -96.4460870366668 0.0
    vertex 17.37848219435836 -95.01581943328577 0.0
  endloop
endfacet
facet normal 0.6087614290087219 0.7933533402912343 0.0
  outer loop
    vertex 19.242443225037288 -96.4460870366668 0.0
    vertex 17.37848219435836 -95.01581943328577 10.0
    vertex 19.242443225037288 -96.4460870366668 10.0
  endloop
endfacet
facet normal 0.3826834323650908 0.9238795325112865 0.0
  outer loop
    vertex 19.242443225037288 -96.4460870366668 10.0
    vertex 21.413071819114595 -97.34519083920847 0.0
    vertex 19.242443225037288 -96.4460870366668 0.0
  endloop
endfacet
facet normal 0.3826834323650908 0.9238795325112865 0.0
  outer loop
    vertex 21.413071819114595 -97.34519083920847 0.0
    vertex 19.242443225037288 -96.4460870366668 10.0
    vertex 21.413071819114595 -97.34519083920847 10.0
  endloop
endfacet
facet normal 0.1305261922200539 0.9914448613738102 0.0
  outer loop
    vertex 21.413071819114595 -97.34519083920847 10.0
    vertex 23.742443225037288 -97.65185840260686 0.0
    vertex 21.413071819114595 -97.34519083920847 0.0
  endloop
endfacet
facet normal 0.1305261922200539 0.9914448613738102 0.0
  outer loop
    vertex 23.742443225037288 -97.65185840260686 0.0
    vertex 21.413071819114595 -97.34519083920847 10.0
    vertex 23.742443225037288 -97.65185840260686 10.0
  endloop
endfacet
facet normal -0.13052619222005418 0.99144486137381 0.0
  outer loop
    vertex 23.742443225037288 -97.65185840260686 10.0
    vertex 26.071814630959974 -97.34519083920847 0.0
    vertex 23.742443225037288 -97.65185840260686 0.0
  endloop
endfacet
facet normal -0.13052619222005418 0.99144486137381 0.0
  outer loop
    vertex 26.071814630959974 -97.34519083920847 0.0
    vertex 23.742443225037288 -97.65185840260686 10.0
    vertex 26.071814630959974 -97.34519083920847 10.0
  endloop
endfacet
facet normal -0.3826834323650908 0.9238795325112865 0.0
  outer loop
    vertex 26.071814630959974 -97.34519083920847 10.0
    vertex 28.24244322503728 -96.4460870366668 0.0
    vertex 26.071814630959974 -97.34519083920847 0.0
  endloop
endfacet
facet normal -0.3826834323650908 0.9238795325112865 0.0
  outer loop
    vertex 28.24244322503728 -96.4460870366668 0.0
    vertex 26.071814630959974 -97.34519083920847 10.0
    vertex 28.24244322503728 -96.4460870366668 10.0
  endloop
endfacet
facet normal -0.6087614290087178 0.7933533402912375 0.0
  outer loop
    vertex 28.24244322503728 -96.4460870366668 10.0
    vertex 30.106404255716217 -95.01581943328578 0.0
    vertex 28.24244322503728 -96.4460870366668 0.0
  endloop
endfacet
facet normal -0.6087614290087178 0.7933533402912375 0.0
  outer loop
    vertex 30.106404255716217 -95.01581943328578 0.0
    vertex 28.24244322503728 -96.4460870366668 10.0
    vertex 30.106404255716217 -95.01581943328578 10.0
  endloop
endfacet
facet normal -0.7933533402912354 0.6087614290087203 0.0
  outer loop
    vertex 31.536671859097236 -93.15185840260685 10.0
    vertex 30.106404255716217 -95.01581943328578 0.0
    vertex 30.106404255716217 -95.01581943328578 10.0
  endloop
endfacet
facet normal -0.7933533402912354 0.6087614290087203 0.0
  outer loop
    vertex 30.106404255716217 -95.01581943328578 0.0
    vertex 31.536671859097236 -93.15185840260685 10.0
    vertex 31.536671859097236 -93.15185840260685 0.0
  endloop
endfacet
facet normal -0.9238795325112865 0.3826834323650908 0.0
  outer loop
    vertex 32.43577566163891 -90.98122980852955 10.0
    vertex 31.536671859097236 -93.15185840260685 0.0
    vertex 31.536671859097236 -93.15185840260685 10.0
  endloop
endfacet
facet normal -0.9238795325112865 0.3826834323650908 0.0
  outer loop
    vertex 31.536671859097236 -93.15185840260685 0.0
    vertex 32.43577566163891 -90.98122980852955 10.0
    vertex 32.43577566163891 -90.98122980852955 0.0
  endloop
endfacet
facet normal -0.9914448613738104 0.13052619222005135 0.0
  outer loop
    vertex 32.74244322503729 -88.65185840260685 10.0
    vertex 32.43577566163891 -90.98122980852955 0.0
    vertex 32.43577566163891 -90.98122980852955 10.0
  endloop
endfacet
facet normal -0.9914448613738104 0.13052619222005135 0.0
  outer loop
    vertex 32.43577566163891 -90.98122980852955 0.0
    vertex 32.74244322503729 -88.65185840260685 10.0
    vertex 32.74244322503729 -88.65185840260685 0.0
  endloop
endfacet
facet normal -0.9914448613738105 -0.13052619222005202 -0.0
  outer loop
    vertex 32.43577566163891 -86.32248699668416 10.0
    vertex 32.74244322503729 -88.65185840260685 0.0
    vertex 32.74244322503729 -88.65185840260685 10.0
  endloop
endfacet
facet normal -0.9914448613738105 -0.13052619222005202 -0.0
  outer loop
    vertex 32.74244322503729 -88.65185840260685 0.0
    vertex 32.43577566163891 -86.32248699668416 10.0
    vertex 32.43577566163891 -86.32248699668416 0.0
  endloop
endfacet
facet normal 0.0 -1.0 0.0
  outer loop
    vertex 37.74244322503729 -80.16657702836828 10.0
    vertex 32.22772459927586 -80.16657702836828 0.0
    vertex 37.74244322503729 -80.16657702836828 0.0
  endloop
endfacet
facet normal 0.0 -1.0 0.0
  outer loop
    vertex 32.22772459927586 -80.16657702836828 0.0
    vertex 37.74244322503729 -80.16657702836828 10.0
    vertex 32.22772459927586 -80.16657702836828 10.0
  endloop
endfacet
facet normal -1.0 -0.0 -0.0
  outer loop
    vertex 37.74244322503729 -97.13713977684542 10.0
    vertex 37.74244322503729 -89.28644975581535 6.076937237926605
    vertex 37.74244322503729 -97.13713977684542 0.0
  endloop
endfacet
facet normal -1.0 -0.0 -0.0
  outer loop
    vertex 37.74244322503729 -89.28644975581535 6.076937237926605
    vertex 37.74244322503729 -97.13713977684542 10.0
    vertex 37.74244322503729 -80.16657702836828 10.0
  endloop
endfacet
facet normal -1.0 -0.0 -0.0
  outer loop
    vertex 37.74244322503729 -97.13713977684542 0.0
    vertex 37.74244322503729 -89.28644975581535 6.076937237926605
    vertex 37.74244322503729 -89.5435584473662 5.875997163337979
  endloop
endfacet
facet normal -1.0 -0.0 -0.0
  outer loop
    vertex 37.74244322503729 -97.13713977684542 0.0
    vertex 37.74244322503729 -89.5435584473662 5.875997163337979
    vertex 37.74244322503729 -89.73989925447066 5.615359329721629
  endloop
endfacet
facet normal -1.0 -0.0 -0.0
  outer loop
    vertex 37.74244322503729 -97.13713977684542 0.0
    vertex 37.74244322503729 -89.73989925447066 5.615359329721629
    vertex 37.74244322503729 -89.86209187559315 5.312785774714125
  endloop
endfacet
facet normal -1.0 -0.0 -0.0
  outer loop
    vertex 37.74244322503729 -97.13713977684542 0.0
    vertex 37.74244322503729 -89.86209187559315 5.312785774714125
    vertex 37.74244322503729 -89.901809085537 4.988896386062787
  endloop
endfacet
facet normal -1.0 -0.0 -0.0
  outer loop
    vertex 37.74244322503729 -89.28644975581535 6.076937237926605
    vertex 37.74244322503729 -80.16657702836828 10.0
    vertex 37.74244322503729 -88.98609471225517 6.204485819473466
  endloop
endfacet
facet normal -1.0 -0.0 -0.0
  outer loop
    vertex 37.74244322503729 -88.98609471225517 6.204485819473466
    vertex 37.74244322503729 -80.16657702836828 10.0
    vertex 37.74244322503729 -88.66296201654406 6.249950682930142
  endloop
endfacet
facet normal -1.0 -0.0 -0.0
  outer loop
    vertex 37.74244322503729 -88.66296201654406 6.249950682930142
    vertex 37.74244322503729 -80.16657702836828 10.0
    vertex 37.74244322503729 -88.33907262789272 6.2102334729863
  endloop
endfacet
facet normal -1.0 -0.0 -0.0
  outer loop
    vertex 37.74244322503729 -88.33907262789272 6.2102334729863
    vertex 37.74244322503729 -80.16657702836828 10.0
    vertex 37.74244322503729 -88.03649907288522 6.088040851863817
  endloop
endfacet
facet normal -1.0 -0.0 -0.0
  outer loop
    vertex 37.74244322503729 -88.03649907288522 6.088040851863817
    vertex 37.74244322503729 -80.16657702836828 10.0
    vertex 37.74244322503729 -87.77586123926888 5.89170004475934
  endloop
endfacet
facet normal -1.0 -0.0 -0.0
  outer loop
    vertex 37.74244322503729 -87.77586123926888 5.89170004475934
    vertex 37.74244322503729 -80.16657702836828 10.0
    vertex 37.74244322503729 -87.57492116468025 5.634591353208513
  endloop
endfacet
facet normal -1.0 -0.0 -0.0
  outer loop
    vertex 37.74244322503729 -87.57492116468025 5.634591353208513
    vertex 37.74244322503729 -80.16657702836828 10.0
    vertex 37.74244322503729 -87.44737258313339 5.334236309648319
  endloop
endfacet
facet normal -1.0 -0.0 -0.0
  outer loop
    vertex 37.74244322503729 -87.44737258313339 5.334236309648319
    vertex 37.74244322503729 -80.16657702836828 10.0
    vertex 37.74244322503729 -87.4019077196767 5.011103613937212
  endloop
endfacet
facet normal -1.0 -0.0 -0.0
  outer loop
    vertex 37.74244322503729 -97.13713977684542 0.0
    vertex 37.74244322503729 -89.26721773232848 3.911959148136181
    vertex 37.74244322503729 -80.16657702836828 0.0
  endloop
endfacet
facet normal -1.0 -0.0 -0.0
  outer loop
    vertex 37.74244322503729 -89.26721773232848 3.911959148136181
    vertex 37.74244322503729 -97.13713977684542 0.0
    vertex 37.74244322503729 -89.52785556594483 4.108299955240659
  endloop
endfacet
facet normal -1.0 -0.0 -0.0
  outer loop
    vertex 37.74244322503729 -89.52785556594483 4.108299955240659
    vertex 37.74244322503729 -97.13713977684542 0.0
    vertex 37.74244322503729 -89.72879564053345 4.3654086467914865
  endloop
endfacet
facet normal -1.0 -0.0 -0.0
  outer loop
    vertex 37.74244322503729 -89.72879564053345 4.3654086467914865
    vertex 37.74244322503729 -97.13713977684542 0.0
    vertex 37.74244322503729 -89.85634422208031 4.665763690351679
  endloop
endfacet
facet normal -1.0 -0.0 -0.0
  outer loop
    vertex 37.74244322503729 -89.85634422208031 4.665763690351679
    vertex 37.74244322503729 -97.13713977684542 0.0
    vertex 37.74244322503729 -89.901809085537 4.988896386062787
  endloop
endfacet
facet normal -1.0 -0.0 -0.0
  outer loop
    vertex 37.74244322503729 -80.16657702836828 0.0
    vertex 37.74244322503729 -89.26721773232848 3.911959148136181
    vertex 37.74244322503729 -88.96464417732098 3.7897665270137
  endloop
endfacet
facet normal -1.0 -0.0 -0.0
  outer loop
    vertex 37.74244322503729 -80.16657702836828 0.0
    vertex 37.74244322503729 -88.96464417732098 3.7897665270137
    vertex 37.74244322503729 -88.64075478866964 3.7500493170698563
  endloop
endfacet
facet normal -1.0 -0.0 -0.0
  outer loop
    vertex 37.74244322503729 -80.16657702836828 0.0
    vertex 37.74244322503729 -88.64075478866964 3.7500493170698563
    vertex 37.74244322503729 -88.31762209295853 3.7955141805265318
  endloop
endfacet
facet normal -1.0 -0.0 -0.0
  outer loop
    vertex 37.74244322503729 -80.16657702836828 0.0
    vertex 37.74244322503729 -88.31762209295853 3.7955141805265318
    vertex 37.74244322503729 -88.01726704939834 3.9230627620733944
  endloop
endfacet
facet normal -1.0 -0.0 -0.0
  outer loop
    vertex 37.74244322503729 -80.16657702836828 0.0
    vertex 37.74244322503729 -88.01726704939834 3.9230627620733944
    vertex 37.74244322503729 -87.7601583578475 4.1240028366620205
  endloop
endfacet
facet normal -1.0 -0.0 -0.0
  outer loop
    vertex 37.74244322503729 -80.16657702836828 0.0
    vertex 37.74244322503729 -87.7601583578475 4.1240028366620205
    vertex 37.74244322503729 -87.56381755074304 4.384640670278369
  endloop
endfacet
facet normal -1.0 -0.0 -0.0
  outer loop
    vertex 37.74244322503729 -80.16657702836828 0.0
    vertex 37.74244322503729 -87.56381755074304 4.384640670278369
    vertex 37.74244322503729 -87.44162492962056 4.6872142252858735
  endloop
endfacet
facet normal -1.0 -0.0 -0.0
  outer loop
    vertex 37.74244322503729 -80.16657702836828 0.0
    vertex 37.74244322503729 -87.44162492962056 4.6872142252858735
    vertex 37.74244322503729 -87.4019077196767 5.011103613937212
  endloop
endfacet
facet normal -1.0 -0.0 -0.0
  outer loop
    vertex 37.74244322503729 -80.16657702836828 0.0
    vertex 37.74244322503729 -87.4019077196767 5.011103613937212
    vertex 37.74244322503729 -80.16657702836828 10.0
  endloop
endfacet
facet normal -0.0 1.0 -0.0
  outer loop
    vertex 32.22772459927586 -97.13713977684542 10.0
    vertex 37.74244322503729 -97.13713977684542 0.0
    vertex 32.22772459927586 -97.13713977684542 0.0
  endloop
endfacet
facet normal -0.0 1.0 -0.0
  outer loop
    vertex 37.74244322503729 -97.13713977684542 0.0
    vertex 32.22772459927586 -97.13713977684542 10.0
    vertex 37.74244322503729 -97.13713977684542 10.0
  endloop
endfacet
facet normal 0.0 0.0 -1.0
  outer loop
    vertex 15.25716185079872 -80.16657702836828 10.0
    vertex 9.74244322503729 -97.13713977684542 10.0
    vertex 9.74244322503729 -80.16657702836828 10.0
  endloop
endfacet
facet normal 0.0 0.0 -1.0
  outer loop
    vertex 9.74244322503729 -97.13713977684542 10.0
    vertex 15.25716185079872 -80.16657702836828 10.0
    vertex 14.74244322503729 -88.65185840260685 10.0
  endloop
endfacet
facet normal 0.0 0.0 -1.0
  outer loop
    vertex 14.74244322503729 -88.65185840260685 10.0
    vertex 15.25716185079872 -80.16657702836828 10.0
    vertex 15.049110788435675 -86.32248699668416 10.0
  endloop
endfacet
facet normal 0.0 0.0 -1.0
  outer loop
    vertex 15.049110788435675 -86.32248699668416 10.0
    vertex 15.25716185079872 -80.16657702836828 10.0
    vertex 15.948214590977344 -84.15185840260685 10.0
  endloop
endfacet
facet normal 0.0 0.0 -1.0
  outer loop
    vertex 15.948214590977344 -84.15185840260685 10.0
    vertex 15.25716185079872 -80.16657702836828 10.0
    vertex 17.74244322503729 -78.25955355719358 10.0
  endloop
endfacet
facet normal 0.0 0.0 -1.0
  outer loop
    vertex 15.948214590977344 -84.15185840260685 10.0
    vertex 17.74244322503729 -78.25955355719358 10.0
    vertex 17.378482194358362 -82.28789737192791 10.0
  endloop
endfacet
facet normal 0.0 0.0 -1.0
  outer loop
    vertex 17.378482194358362 -82.28789737192791 10.0
    vertex 17.74244322503729 -78.25955355719358 10.0
    vertex 19.24244322503729 -80.8576297685469 10.0
  endloop
endfacet
facet normal 0.0 0.0 -1.0
  outer loop
    vertex 19.24244322503729 -80.8576297685469 10.0
    vertex 17.74244322503729 -78.25955355719358 10.0
    vertex 20.636614683807043 -77.06074848713803 10.0
  endloop
endfacet
facet normal 0.0 0.0 -1.0
  outer loop
    vertex 19.24244322503729 -80.8576297685469 10.0
    vertex 20.636614683807043 -77.06074848713803 10.0
    vertex 21.413071819114606 -79.95852596600524 10.0
  endloop
endfacet
facet normal 0.0 0.0 -1.0
  outer loop
    vertex 21.413071819114606 -79.95852596600524 10.0
    vertex 20.636614683807043 -77.06074848713803 10.0
    vertex 23.74244322503729 -76.65185840260685 10.0
  endloop
endfacet
facet normal 0.0 0.0 -1.0
  outer loop
    vertex 21.413071819114606 -79.95852596600524 10.0
    vertex 23.74244322503729 -76.65185840260685 10.0
    vertex 23.74244322503729 -79.65185840260685 10.0
  endloop
endfacet
facet normal 0.0 0.0 -1.0
  outer loop
    vertex 23.74244322503729 -79.65185840260685 10.0
    vertex 23.74244322503729 -76.65185840260685 10.0
    vertex 26.84827176626754 -77.06074848713803 10.0
  endloop
endfacet
facet normal 0.0 0.0 -1.0
  outer loop
    vertex 23.74244322503729 -79.65185840260685 10.0
    vertex 26.84827176626754 -77.06074848713803 10.0
    vertex 26.071814630959977 -79.95852596600524 10.0
  endloop
endfacet
facet normal 0.0 0.0 -1.0
  outer loop
    vertex 26.071814630959977 -79.95852596600524 10.0
    vertex 26.84827176626754 -77.06074848713803 10.0
    vertex 28.24244322503729 -80.8576297685469 10.0
  endloop
endfacet
facet normal 0.0 0.0 -1.0
  outer loop
    vertex 28.24244322503729 -80.8576297685469 10.0
    vertex 26.84827176626754 -77.06074848713803 10.0
    vertex 29.74244322503729 -78.2595535571936 10.0
  endloop
endfacet
facet normal 0.0 0.0 -1.0
  outer loop
    vertex 28.24244322503729 -80.8576297685469 10.0
    vertex 29.74244322503729 -78.2595535571936 10.0
    vertex 30.106404255716217 -82.28789737192791 10.0
  endloop
endfacet
facet normal 0.0 0.0 -1.0
  outer loop
    vertex 30.106404255716217 -82.28789737192791 10.0
    vertex 29.74244322503729 -78.2595535571936 10.0
    vertex 32.22772459927586 -80.16657702836828 10.0
  endloop
endfacet
facet normal 0.0 0.0 -1.0
  outer loop
    vertex 30.106404255716217 -82.28789737192791 10.0
    vertex 32.22772459927586 -80.16657702836828 10.0
    vertex 31.536671859097236 -84.15185840260685 10.0
  endloop
endfacet
facet normal 0.0 0.0 -1.0
  outer loop
    vertex 31.536671859097236 -84.15185840260685 10.0
    vertex 32.22772459927586 -80.16657702836828 10.0
    vertex 32.43577566163891 -86.32248699668416 10.0
  endloop
endfacet
facet normal 0.0 0.0 -1.0
  outer loop
    vertex 32.43577566163891 -86.32248699668416 10.0
    vertex 32.22772459927586 -80.16657702836828 10.0
    vertex 37.74244322503729 -80.16657702836828 10.0
  endloop
endfacet
facet normal 0.0 0.0 -1.0
  outer loop
    vertex 32.43577566163891 -86.32248699668416 10.0
    vertex 37.74244322503729 -80.16657702836828 10.0
    vertex 32.74244322503729 -88.65185840260685 10.0
  endloop
endfacet
facet normal 0.0 0.0 -1.0
  outer loop
    vertex 14.74244322503729 -88.65185840260685 10.0
    vertex 15.257161850798715 -97.13713977684542 10.0
    vertex 9.74244322503729 -97.13713977684542 10.0
  endloop
endfacet
facet normal 0.0 0.0 -1.0
  outer loop
    vertex 15.257161850798715 -97.13713977684542 10.0
    vertex 14.74244322503729 -88.65185840260685 10.0
    vertex 15.049110788435675 -90.98122980852953 10.0
  endloop
endfacet
facet normal 0.0 0.0 -1.0
  outer loop
    vertex 15.257161850798715 -97.13713977684542 10.0
    vertex 15.049110788435675 -90.98122980852953 10.0
    vertex 15.94821459097734 -93.15185840260685 10.0
  endloop
endfacet
facet normal 0.0 0.0 -1.0
  outer loop
    vertex 15.257161850798715 -97.13713977684542 10.0
    vertex 15.94821459097734 -93.15185840260685 10.0
    vertex 17.742443225037285 -99.04416324802011 10.0
  endloop
endfacet
facet normal 0.0 0.0 -1.0
  outer loop
    vertex 17.742443225037285 -99.04416324802011 10.0
    vertex 15.94821459097734 -93.15185840260685 10.0
    vertex 17.37848219435836 -95.01581943328577 10.0
  endloop
endfacet
facet normal 0.0 0.0 -1.0
  outer loop
    vertex 17.742443225037285 -99.04416324802011 10.0
    vertex 17.37848219435836 -95.01581943328577 10.0
    vertex 19.242443225037288 -96.4460870366668 10.0
  endloop
endfacet
facet normal 0.0 0.0 -1.0
  outer loop
    vertex 17.742443225037285 -99.04416324802011 10.0
    vertex 19.242443225037288 -96.4460870366668 10.0
    vertex 20.636614683807032 -100.24296831807567 10.0
  endloop
endfacet
facet normal 0.0 0.0 -1.0
  outer loop
    vertex 20.636614683807032 -100.24296831807567 10.0
    vertex 19.242443225037288 -96.4460870366668 10.0
    vertex 21.413071819114595 -97.34519083920847 10.0
  endloop
endfacet
facet normal 0.0 0.0 -1.0
  outer loop
    vertex 20.636614683807032 -100.24296831807567 10.0
    vertex 21.413071819114595 -97.34519083920847 10.0
    vertex 23.742443225037288 -100.65185840260685 10.0
  endloop
endfacet
facet normal 0.0 0.0 -1.0
  outer loop
    vertex 23.742443225037288 -100.65185840260685 10.0
    vertex 21.413071819114595 -97.34519083920847 10.0
    vertex 23.742443225037288 -97.65185840260686 10.0
  endloop
endfacet
facet normal 0.0 0.0 -1.0
  outer loop
    vertex 23.742443225037288 -100.65185840260685 10.0
    vertex 23.742443225037288 -97.65185840260686 10.0
    vertex 26.071814630959974 -97.34519083920847 10.0
  endloop
endfacet
facet normal 0.0 0.0 -1.0
  outer loop
    vertex 23.742443225037288 -100.65185840260685 10.0
    vertex 26.071814630959974 -97.34519083920847 10.0
    vertex 26.848271766267533 -100.24296831807567 10.0
  endloop
endfacet
facet normal 0.0 0.0 -1.0
  outer loop
    vertex 26.848271766267533 -100.24296831807567 10.0
    vertex 26.071814630959974 -97.34519083920847 10.0
    vertex 28.24244322503728 -96.4460870366668 10.0
  endloop
endfacet
facet normal 0.0 0.0 -1.0
  outer loop
    vertex 26.848271766267533 -100.24296831807567 10.0
    vertex 28.24244322503728 -96.4460870366668 10.0
    vertex 29.742443225037277 -99.04416324802013 10.0
  endloop
endfacet
facet normal 0.0 0.0 -1.0
  outer loop
    vertex 29.742443225037277 -99.04416324802013 10.0
    vertex 28.24244322503728 -96.4460870366668 10.0
    vertex 30.106404255716217 -95.01581943328578 10.0
  endloop
endfacet
facet normal 0.0 0.0 -1.0
  outer loop
    vertex 29.742443225037277 -99.04416324802013 10.0
    vertex 30.106404255716217 -95.01581943328578 10.0
    vertex 32.22772459927586 -97.13713977684542 10.0
  endloop
endfacet
facet normal 0.0 0.0 -1.0
  outer loop
    vertex 32.22772459927586 -97.13713977684542 10.0
    vertex 30.106404255716217 -95.01581943328578 10.0
    vertex 31.536671859097236 -93.15185840260685 10.0
  endloop
endfacet
facet normal 0.0 0.0 -1.0
  outer loop
    vertex 32.22772459927586 -97.13713977684542 10.0
    vertex 31.536671859097236 -93.15185840260685 10.0
    vertex 32.43577566163891 -90.98122980852955 10.0
  endloop
endfacet
facet normal 0.0 0.0 -1.0
  outer loop
    vertex 32.22772459927586 -97.13713977684542 10.0
    vertex 32.43577566163891 -90.98122980852955 10.0
    vertex 37.74244322503729 -97.13713977684542 10.0
  endloop
endfacet
facet normal 0.0 0.0 -1.0
  outer loop
    vertex 37.74244322503729 -97.13713977684542 10.0
    vertex 32.43577566163891 -90.98122980852955 10.0
    vertex 32.74244322503729 -88.65185840260685 10.0
  endloop
endfacet
facet normal 0.0 0.0 -1.0
  outer loop
    vertex 37.74244322503729 -97.13713977684542 10.0
    vertex 32.74244322503729 -88.65185840260685 10.0
    vertex 37.74244322503729 -80.16657702836828 10.0
  endloop
endfacet
facet normal -0.0 1.0 -0.0
  outer loop
    vertex 9.74244322503729 -97.13713977684542 10.0
    vertex 15.257161850798715 -97.13713977684542 0.0
    vertex 9.74244322503729 -97.13713977684542 0.0
  endloop
endfacet
facet normal -0.0 1.0 -0.0
  outer loop
    vertex 15.257161850798715 -97.13713977684542 0.0
    vertex 9.74244322503729 -97.13713977684542 10.0
    vertex 15.257161850798715 -97.13713977684542 10.0
  endloop
endfacet
facet normal 0.0 -1.0 0.0
  outer loop
    vertex 15.25716185079872 -80.16657702836828 10.0
    vertex 9.74244322503729 -80.16657702836828 0.0
    vertex 15.25716185079872 -80.16657702836828 0.0
  endloop
endfacet
facet normal 0.0 -1.0 0.0
  outer loop
    vertex 9.74244322503729 -80.16657702836828 0.0
    vertex 15.25716185079872 -80.16657702836828 10.0
    vertex 9.74244322503729 -80.16657702836828 10.0
  endloop
endfacet
facet normal -1.0 0.0 0.0
  outer loop
    vertex 43.99244322503729 -89.86209187559315 5.312785774714125
    vertex 43.99244322503729 -89.85634422208031 4.665763690351679
    vertex 43.99244322503729 -89.901809085537 4.988896386062787
  endloop
endfacet
facet normal -1.0 0.0 0.0
  outer loop
    vertex 43.99244322503729 -89.85634422208031 4.665763690351679
    vertex 43.99244322503729 -89.86209187559315 5.312785774714125
    vertex 43.99244322503729 -89.73989925447066 5.615359329721629
  endloop
endfacet
facet normal -1.0 0.0 0.0
  outer loop
    vertex 43.99244322503729 -89.85634422208031 4.665763690351679
    vertex 43.99244322503729 -89.73989925447066 5.615359329721629
    vertex 43.99244322503729 -89.72879564053345 4.3654086467914865
  endloop
endfacet
facet normal -1.0 0.0 0.0
  outer loop
    vertex 43.99244322503729 -89.72879564053345 4.3654086467914865
    vertex 43.99244322503729 -89.73989925447066 5.615359329721629
    vertex 43.99244322503729 -89.5435584473662 5.875997163337979
  endloop
endfacet
facet normal -1.0 0.0 0.0
  outer loop
    vertex 43.99244322503729 -89.72879564053345 4.3654086467914865
    vertex 43.99244322503729 -89.5435584473662 5.875997163337979
    vertex 43.99244322503729 -89.52785556594483 4.108299955240659
  endloop
endfacet
facet normal -1.0 0.0 0.0
  outer loop
    vertex 43.99244322503729 -89.52785556594483 4.108299955240659
    vertex 43.99244322503729 -89.5435584473662 5.875997163337979
    vertex 43.99244322503729 -89.28644975581535 6.076937237926605
  endloop
endfacet
facet normal -1.0 0.0 0.0
  outer loop
    vertex 43.99244322503729 -89.52785556594483 4.108299955240659
    vertex 43.99244322503729 -89.28644975581535 6.076937237926605
    vertex 43.99244322503729 -89.26721773232848 3.911959148136181
  endloop
endfacet
facet normal -1.0 0.0 0.0
  outer loop
    vertex 43.99244322503729 -89.26721773232848 3.911959148136181
    vertex 43.99244322503729 -89.28644975581535 6.076937237926605
    vertex 43.99244322503729 -88.98609471225517 6.204485819473466
  endloop
endfacet
facet normal -1.0 0.0 0.0
  outer loop
    vertex 43.99244322503729 -89.26721773232848 3.911959148136181
    vertex 43.99244322503729 -88.98609471225517 6.204485819473466
    vertex 43.99244322503729 -88.96464417732098 3.7897665270137
  endloop
endfacet
facet normal -1.0 0.0 0.0
  outer loop
    vertex 43.99244322503729 -88.96464417732098 3.7897665270137
    vertex 43.99244322503729 -88.98609471225517 6.204485819473466
    vertex 43.99244322503729 -88.66296201654406 6.249950682930142
  endloop
endfacet
facet normal -1.0 0.0 0.0
  outer loop
    vertex 43.99244322503729 -88.96464417732098 3.7897665270137
    vertex 43.99244322503729 -88.66296201654406 6.249950682930142
    vertex 43.99244322503729 -88.64075478866964 3.7500493170698563
  endloop
endfacet
facet normal -1.0 0.0 0.0
  outer loop
    vertex 43.99244322503729 -88.64075478866964 3.7500493170698563
    vertex 43.99244322503729 -88.66296201654406 6.249950682930142
    vertex 43.99244322503729 -88.33907262789272 6.2102334729863
  endloop
endfacet
facet normal -1.0 0.0 0.0
  outer loop
    vertex 43.99244322503729 -88.64075478866964 3.7500493170698563
    vertex 43.99244322503729 -88.33907262789272 6.2102334729863
    vertex 43.99244322503729 -88.31762209295853 3.7955141805265318
  endloop
endfacet
facet normal -1.0 0.0 0.0
  outer loop
    vertex 43.99244322503729 -88.31762209295853 3.7955141805265318
    vertex 43.99244322503729 -88.33907262789272 6.2102334729863
    vertex 43.99244322503729 -88.03649907288522 6.088040851863817
  endloop
endfacet
facet normal -1.0 0.0 0.0
  outer loop
    vertex 43.99244322503729 -88.31762209295853 3.7955141805265318
    vertex 43.99244322503729 -88.03649907288522 6.088040851863817
    vertex 43.99244322503729 -88.01726704939834 3.9230627620733944
  endloop
endfacet
facet normal -1.0 0.0 0.0
  outer loop
    vertex 43.99244322503729 -88.01726704939834 3.9230627620733944
    vertex 43.99244322503729 -88.03649907288522 6.088040851863817
    vertex 43.99244322503729 -87.77586123926888 5.89170004475934
  endloop
endfacet
facet normal -1.0 0.0 0.0
  outer loop
    vertex 43.99244322503729 -88.01726704939834 3.9230627620733944
    vertex 43.99244322503729 -87.77586123926888 5.89170004475934
    vertex 43.99244322503729 -87.7601583578475 4.1240028366620205
  endloop
endfacet
facet normal -1.0 0.0 0.0
  outer loop
    vertex 43.99244322503729 -87.7601583578475 4.1240028366620205
    vertex 43.99244322503729 -87.77586123926888 5.89170004475934
    vertex 43.99244322503729 -87.57492116468025 5.634591353208513
  endloop
endfacet
facet normal -1.0 0.0 0.0
  outer loop
    vertex 43.99244322503729 -87.7601583578475 4.1240028366620205
    vertex 43.99244322503729 -87.57492116468025 5.634591353208513
    vertex 43.99244322503729 -87.56381755074304 4.384640670278369
  endloop
endfacet
facet normal -1.0 0.0 0.0
  outer loop
    vertex 43.99244322503729 -87.56381755074304 4.384640670278369
    vertex 43.99244322503729 -87.57492116468025 5.634591353208513
    vertex 43.99244322503729 -87.44737258313339 5.334236309648319
  endloop
endfacet
facet normal -1.0 0.0 0.0
  outer loop
    vertex 43.99244322503729 -87.56381755074304 4.384640670278369
    vertex 43.99244322503729 -87.44737258313339 5.334236309648319
    vertex 43.99244322503729 -87.44162492962056 4.6872142252858735
  endloop
endfacet
facet normal -1.0 0.0 0.0
  outer loop
    vertex 43.99244322503729 -87.44162492962056 4.6872142252858735
    vertex 43.99244322503729 -87.44737258313339 5.334236309648319
    vertex 43.99244322503729 -87.4019077196767 5.011103613937212
  endloop
endfacet
facet normal -0.0 -0.37446161278184253 -0.9272424173606498
  outer loop
    vertex 43.99244322503729 -88.03649907288522 6.088040851863817
    vertex 37.74244322503729 -88.33907262789272 6.2102334729863
    vertex 37.74244322503729 -88.03649907288522 6.088040851863817
  endloop
endfacet
facet normal -0.0 -0.37446161278184253 -0.9272424173606498
  outer loop
    vertex 37.74244322503729 -88.33907262789272 6.2102334729863
    vertex 43.99244322503729 -88.03649907288522 6.088040851863817
    vertex 43.99244322503729 -88.33907262789272 6.2102334729863
  endloop
endfacet
facet normal -0.0 -0.6016901397796658 -0.7987296011116193
  outer loop
    vertex 43.99244322503729 -87.77586123926888 5.89170004475934
    vertex 37.74244322503729 -88.03649907288522 6.088040851863817
    vertex 37.74244322503729 -87.77586123926888 5.89170004475934
  endloop
endfacet
facet normal -0.0 -0.6016901397796658 -0.7987296011116193
  outer loop
    vertex 37.74244322503729 -88.03649907288522 6.088040851863817
    vertex 43.99244322503729 -87.77586123926888 5.89170004475934
    vertex 43.99244322503729 -88.03649907288522 6.088040851863817
  endloop
endfacet
facet normal -0.0 -0.7879144780914894 -0.6157846825098979
  outer loop
    vertex 43.99244322503729 -87.77586123926888 5.89170004475934
    vertex 37.74244322503729 -87.57492116468025 5.634591353208513
    vertex 43.99244322503729 -87.57492116468025 5.634591353208513
  endloop
endfacet
facet normal -0.0 -0.7879144780914894 -0.6157846825098979
  outer loop
    vertex 37.74244322503729 -87.57492116468025 5.634591353208513
    vertex 43.99244322503729 -87.77586123926888 5.89170004475934
    vertex 37.74244322503729 -87.77586123926888 5.89170004475934
  endloop
endfacet
facet normal -0.0 -0.9204437468116182 -0.39087505542742157
  outer loop
    vertex 43.99244322503729 -87.57492116468025 5.634591353208513
    vertex 37.74244322503729 -87.44737258313339 5.334236309648319
    vertex 43.99244322503729 -87.44737258313339 5.334236309648319
  endloop
endfacet
facet normal -0.0 -0.9204437468116182 -0.39087505542742157
  outer loop
    vertex 37.74244322503729 -87.44737258313339 5.334236309648319
    vertex 43.99244322503729 -87.57492116468025 5.634591353208513
    vertex 37.74244322503729 -87.57492116468025 5.634591353208513
  endloop
endfacet
facet normal -0.0 -0.9902462952917322 -0.1393279392691921
  outer loop
    vertex 43.99244322503729 -87.44737258313339 5.334236309648319
    vertex 37.74244322503729 -87.4019077196767 5.011103613937212
    vertex 43.99244322503729 -87.4019077196767 5.011103613937212
  endloop
endfacet
facet normal -0.0 -0.9902462952917322 -0.1393279392691921
  outer loop
    vertex 37.74244322503729 -87.4019077196767 5.011103613937212
    vertex 43.99244322503729 -87.44737258313339 5.334236309648319
    vertex 37.74244322503729 -87.44737258313339 5.334236309648319
  endloop
endfacet
facet normal -0.0 -0.9925651952071032 0.1217141457000176
  outer loop
    vertex 43.99244322503729 -87.4019077196767 5.011103613937212
    vertex 37.74244322503729 -87.44162492962056 4.6872142252858735
    vertex 43.99244322503729 -87.44162492962056 4.6872142252858735
  endloop
endfacet
facet normal -0.0 -0.9925651952071032 0.1217141457000176
  outer loop
    vertex 37.74244322503729 -87.44162492962056 4.6872142252858735
    vertex 43.99244322503729 -87.4019077196767 5.011103613937212
    vertex 37.74244322503729 -87.4019077196767 5.011103613937212
  endloop
endfacet
facet normal -0.0 -0.9272424173606495 0.3744616127818436
  outer loop
    vertex 43.99244322503729 -87.44162492962056 4.6872142252858735
    vertex 37.74244322503729 -87.56381755074304 4.384640670278369
    vertex 43.99244322503729 -87.56381755074304 4.384640670278369
  endloop
endfacet
facet normal -0.0 -0.9272424173606495 0.3744616127818436
  outer loop
    vertex 37.74244322503729 -87.56381755074304 4.384640670278369
    vertex 43.99244322503729 -87.44162492962056 4.6872142252858735
    vertex 37.74244322503729 -87.44162492962056 4.6872142252858735
  endloop
endfacet
facet normal -0.0 -0.7987296011116289 0.601690139779653
  outer loop
    vertex 43.99244322503729 -87.56381755074304 4.384640670278369
    vertex 37.74244322503729 -87.7601583578475 4.1240028366620205
    vertex 43.99244322503729 -87.7601583578475 4.1240028366620205
  endloop
endfacet
facet normal -0.0 -0.7987296011116289 0.601690139779653
  outer loop
    vertex 37.74244322503729 -87.7601583578475 4.1240028366620205
    vertex 43.99244322503729 -87.56381755074304 4.384640670278369
    vertex 37.74244322503729 -87.56381755074304 4.384640670278369
  endloop
endfacet
facet normal -0.0 -0.6157846825098854 0.7879144780914993
  outer loop
    vertex 43.99244322503729 -88.01726704939834 3.9230627620733944
    vertex 37.74244322503729 -87.7601583578475 4.1240028366620205
    vertex 37.74244322503729 -88.01726704939834 3.9230627620733944
  endloop
endfacet
facet normal -0.0 -0.6157846825098854 0.7879144780914993
  outer loop
    vertex 37.74244322503729 -87.7601583578475 4.1240028366620205
    vertex 43.99244322503729 -88.01726704939834 3.9230627620733944
    vertex 43.99244322503729 -87.7601583578475 4.1240028366620205
  endloop
endfacet
facet normal -0.0 -0.3908750554274385 0.920443746811611
  outer loop
    vertex 43.99244322503729 -88.31762209295853 3.7955141805265318
    vertex 37.74244322503729 -88.01726704939834 3.9230627620733944
    vertex 37.74244322503729 -88.31762209295853 3.7955141805265318
  endloop
endfacet
facet normal -0.0 -0.3908750554274385 0.920443746811611
  outer loop
    vertex 37.74244322503729 -88.01726704939834 3.9230627620733944
    vertex 43.99244322503729 -88.31762209295853 3.7955141805265318
    vertex 43.99244322503729 -88.01726704939834 3.9230627620733944
  endloop
endfacet
facet normal -0.0 -0.13932793926916154 0.9902462952917365
  outer loop
    vertex 43.99244322503729 -88.64075478866964 3.7500493170698563
    vertex 37.74244322503729 -88.31762209295853 3.7955141805265318
    vertex 37.74244322503729 -88.64075478866964 3.7500493170698563
  endloop
endfacet
facet normal -0.0 -0.13932793926916154 0.9902462952917365
  outer loop
    vertex 37.74244322503729 -88.31762209295853 3.7955141805265318
    vertex 43.99244322503729 -88.64075478866964 3.7500493170698563
    vertex 43.99244322503729 -88.31762209295853 3.7955141805265318
  endloop
endfacet
facet normal 0.0 0.12171414570000164 0.9925651952071053
  outer loop
    vertex 43.99244322503729 -88.96464417732098 3.7897665270137
    vertex 37.74244322503729 -88.64075478866964 3.7500493170698563
    vertex 37.74244322503729 -88.96464417732098 3.7897665270137
  endloop
endfacet
facet normal 0.0 0.12171414570000164 0.9925651952071053
  outer loop
    vertex 37.74244322503729 -88.64075478866964 3.7500493170698563
    vertex 43.99244322503729 -88.96464417732098 3.7897665270137
    vertex 43.99244322503729 -88.64075478866964 3.7500493170698563
  endloop
endfacet
facet normal 0.0 0.37446161278184065 0.9272424173606505
  outer loop
    vertex 43.99244322503729 -89.26721773232848 3.911959148136181
    vertex 37.74244322503729 -88.96464417732098 3.7897665270137
    vertex 37.74244322503729 -89.26721773232848 3.911959148136181
  endloop
endfacet
facet normal 0.0 0.37446161278184065 0.9272424173606505
  outer loop
    vertex 37.74244322503729 -88.96464417732098 3.7897665270137
    vertex 43.99244322503729 -89.26721773232848 3.911959148136181
    vertex 43.99244322503729 -88.96464417732098 3.7897665270137
  endloop
endfacet
facet normal 0.0 0.601690139779667 0.7987296011116182
  outer loop
    vertex 43.99244322503729 -89.52785556594483 4.108299955240659
    vertex 37.74244322503729 -89.26721773232848 3.911959148136181
    vertex 37.74244322503729 -89.52785556594483 4.108299955240659
  endloop
endfacet
facet normal 0.0 0.601690139779667 0.7987296011116182
  outer loop
    vertex 37.74244322503729 -89.26721773232848 3.911959148136181
    vertex 43.99244322503729 -89.52785556594483 4.108299955240659
    vertex 43.99244322503729 -89.26721773232848 3.911959148136181
  endloop
endfacet
facet normal 0.0 0.7879144780914887 0.615784682509899
  outer loop
    vertex 37.74244322503729 -89.72879564053345 4.3654086467914865
    vertex 43.99244322503729 -89.52785556594483 4.108299955240659
    vertex 37.74244322503729 -89.52785556594483 4.108299955240659
  endloop
endfacet
facet normal 0.0 0.7879144780914887 0.615784682509899
  outer loop
    vertex 43.99244322503729 -89.52785556594483 4.108299955240659
    vertex 37.74244322503729 -89.72879564053345 4.3654086467914865
    vertex 43.99244322503729 -89.72879564053345 4.3654086467914865
  endloop
endfacet
facet normal 0.0 0.9204437468116182 0.39087505542742157
  outer loop
    vertex 37.74244322503729 -89.85634422208031 4.665763690351679
    vertex 43.99244322503729 -89.72879564053345 4.3654086467914865
    vertex 37.74244322503729 -89.72879564053345 4.3654086467914865
  endloop
endfacet
facet normal 0.0 0.9204437468116182 0.39087505542742157
  outer loop
    vertex 43.99244322503729 -89.72879564053345 4.3654086467914865
    vertex 37.74244322503729 -89.85634422208031 4.665763690351679
    vertex 43.99244322503729 -89.85634422208031 4.665763690351679
  endloop
endfacet
facet normal 0.0 0.9902462952917322 0.1393279392691921
  outer loop
    vertex 37.74244322503729 -89.901809085537 4.988896386062787
    vertex 43.99244322503729 -89.85634422208031 4.665763690351679
    vertex 37.74244322503729 -89.85634422208031 4.665763690351679
  endloop
endfacet
facet normal 0.0 0.9902462952917322 0.1393279392691921
  outer loop
    vertex 43.99244322503729 -89.85634422208031 4.665763690351679
    vertex 37.74244322503729 -89.901809085537 4.988896386062787
    vertex 43.99244322503729 -89.901809085537 4.988896386062787
  endloop
endfacet
facet normal -0.0 0.9925651952071033 -0.12171414570001786
  outer loop
    vertex 37.74244322503729 -89.86209187559315 5.312785774714125
    vertex 43.99244322503729 -89.901809085537 4.988896386062787
    vertex 37.74244322503729 -89.901809085537 4.988896386062787
  endloop
endfacet
facet normal -0.0 0.9925651952071033 -0.12171414570001786
  outer loop
    vertex 43.99244322503729 -89.901809085537 4.988896386062787
    vertex 37.74244322503729 -89.86209187559315 5.312785774714125
    vertex 43.99244322503729 -89.86209187559315 5.312785774714125
  endloop
endfacet
facet normal -0.0 0.9272424173606495 -0.3744616127818436
  outer loop
    vertex 37.74244322503729 -89.73989925447066 5.615359329721629
    vertex 43.99244322503729 -89.86209187559315 5.312785774714125
    vertex 37.74244322503729 -89.86209187559315 5.312785774714125
  endloop
endfacet
facet normal -0.0 0.9272424173606495 -0.3744616127818436
  outer loop
    vertex 43.99244322503729 -89.86209187559315 5.312785774714125
    vertex 37.74244322503729 -89.73989925447066 5.615359329721629
    vertex 43.99244322503729 -89.73989925447066 5.615359329721629
  endloop
endfacet
facet normal -0.0 0.7987296011116296 -0.6016901397796519
  outer loop
    vertex 37.74244322503729 -89.5435584473662 5.875997163337979
    vertex 43.99244322503729 -89.73989925447066 5.615359329721629
    vertex 37.74244322503729 -89.73989925447066 5.615359329721629
  endloop
endfacet
facet normal -0.0 0.7987296011116296 -0.6016901397796519
  outer loop
    vertex 43.99244322503729 -89.73989925447066 5.615359329721629
    vertex 37.74244322503729 -89.5435584473662 5.875997163337979
    vertex 43.99244322503729 -89.5435584473662 5.875997163337979
  endloop
endfacet
facet normal -0.0 0.6157846825098854 -0.7879144780914993
  outer loop
    vertex 43.99244322503729 -89.28644975581535 6.076937237926605
    vertex 37.74244322503729 -89.5435584473662 5.875997163337979
    vertex 37.74244322503729 -89.28644975581535 6.076937237926605
  endloop
endfacet
facet normal -0.0 0.6157846825098854 -0.7879144780914993
  outer loop
    vertex 37.74244322503729 -89.5435584473662 5.875997163337979
    vertex 43.99244322503729 -89.28644975581535 6.076937237926605
    vertex 43.99244322503729 -89.5435584473662 5.875997163337979
  endloop
endfacet
facet normal -0.0 0.39087505542743667 -0.9204437468116118
  outer loop
    vertex 43.99244322503729 -88.98609471225517 6.204485819473466
    vertex 37.74244322503729 -89.28644975581535 6.076937237926605
    vertex 37.74244322503729 -88.98609471225517 6.204485819473466
  endloop
endfacet
facet normal -0.0 0.39087505542743667 -0.9204437468116118
  outer loop
    vertex 37.74244322503729 -89.28644975581535 6.076937237926605
    vertex 43.99244322503729 -88.98609471225517 6.204485819473466
    vertex 43.99244322503729 -89.28644975581535 6.076937237926605
  endloop
endfacet
facet normal -0.0 0.13932793926916154 -0.9902462952917365
  outer loop
    vertex 43.99244322503729 -88.66296201654406 6.249950682930142
    vertex 37.74244322503729 -88.98609471225517 6.204485819473466
    vertex 37.74244322503729 -88.66296201654406 6.249950682930142
  endloop
endfacet
facet normal -0.0 0.13932793926916154 -0.9902462952917365
  outer loop
    vertex 37.74244322503729 -88.98609471225517 6.204485819473466
    vertex 43.99244322503729 -88.66296201654406 6.249950682930142
    vertex 43.99244322503729 -88.98609471225517 6.204485819473466
  endloop
endfacet
facet normal -0.0 -0.12171414569999738 -0.9925651952071058
  outer loop
    vertex 43.99244322503729 -88.33907262789272 6.2102334729863
    vertex 37.74244322503729 -88.66296201654406 6.249950682930142
    vertex 37.74244322503729 -88.33907262789272 6.2102334729863
  endloop
endfacet
facet normal -0.0 -0.12171414569999738 -0.9925651952071058
  outer loop
    vertex 37.74244322503729 -88.66296201654406 6.249950682930142
    vertex 43.99244322503729 -88.33907262789272 6.2102334729863
    vertex 43.99244322503729 -88.66296201654406 6.249950682930142
  endloop
endfacet
facet normal 1.0 -0.0 -0.0
  outer loop
    vertex 9.74244322503729 -97.13713977684542 0.0
    vertex 9.74244322503729 -89.28644975581538 3.9230627620733944
    vertex 9.74244322503729 -97.13713977684542 10.0
  endloop
endfacet
facet normal 1.0 -0.0 -0.0
  outer loop
    vertex 9.74244322503729 -89.28644975581538 3.9230627620733944
    vertex 9.74244322503729 -97.13713977684542 0.0
    vertex 9.74244322503729 -80.16657702836828 0.0
  endloop
endfacet
facet normal 1.0 -0.0 -0.0
  outer loop
    vertex 9.74244322503729 -97.13713977684542 10.0
    vertex 9.74244322503729 -89.28644975581538 3.9230627620733944
    vertex 9.74244322503729 -89.54355844736621 4.124002836662021
  endloop
endfacet
facet normal 1.0 -0.0 -0.0
  outer loop
    vertex 9.74244322503729 -97.13713977684542 10.0
    vertex 9.74244322503729 -89.54355844736621 4.124002836662021
    vertex 9.74244322503729 -89.73989925447069 4.384640670278372
  endloop
endfacet
facet normal 1.0 -0.0 -0.0
  outer loop
    vertex 9.74244322503729 -97.13713977684542 10.0
    vertex 9.74244322503729 -89.73989925447069 4.384640670278372
    vertex 9.74244322503729 -89.86209187559317 4.687214225285877
  endloop
endfacet
facet normal 1.0 -0.0 -0.0
  outer loop
    vertex 9.74244322503729 -97.13713977684542 10.0
    vertex 9.74244322503729 -89.86209187559317 4.687214225285877
    vertex 9.74244322503729 -89.90180908553701 5.011103613937217
  endloop
endfacet
facet normal 1.0 -0.0 -0.0
  outer loop
    vertex 9.74244322503729 -89.28644975581538 3.9230627620733944
    vertex 9.74244322503729 -80.16657702836828 0.0
    vertex 9.74244322503729 -88.9860947122552 3.7955141805265318
  endloop
endfacet
facet normal 1.0 -0.0 -0.0
  outer loop
    vertex 9.74244322503729 -88.9860947122552 3.7955141805265318
    vertex 9.74244322503729 -80.16657702836828 0.0
    vertex 9.74244322503729 -88.66296201654409 3.7500493170698546
  endloop
endfacet
facet normal 1.0 -0.0 -0.0
  outer loop
    vertex 9.74244322503729 -88.66296201654409 3.7500493170698546
    vertex 9.74244322503729 -80.16657702836828 0.0
    vertex 9.74244322503729 -88.33907262789273 3.7897665270136964
  endloop
endfacet
facet normal 1.0 -0.0 -0.0
  outer loop
    vertex 9.74244322503729 -88.33907262789273 3.7897665270136964
    vertex 9.74244322503729 -80.16657702836828 0.0
    vertex 9.74244322503729 -88.03649907288523 3.9119591481361775
  endloop
endfacet
facet normal 1.0 -0.0 -0.0
  outer loop
    vertex 9.74244322503729 -88.03649907288523 3.9119591481361775
    vertex 9.74244322503729 -80.16657702836828 0.0
    vertex 9.74244322503729 -87.77586123926888 4.108299955240654
  endloop
endfacet
facet normal 1.0 -0.0 -0.0
  outer loop
    vertex 9.74244322503729 -87.77586123926888 4.108299955240654
    vertex 9.74244322503729 -80.16657702836828 0.0
    vertex 9.74244322503729 -87.57492116468026 4.365408646791482
  endloop
endfacet
facet normal 1.0 -0.0 -0.0
  outer loop
    vertex 9.74244322503729 -87.57492116468026 4.365408646791482
    vertex 9.74244322503729 -80.16657702836828 0.0
    vertex 9.74244322503729 -87.44737258313339 4.6657636903516755
  endloop
endfacet
facet normal 1.0 -0.0 -0.0
  outer loop
    vertex 9.74244322503729 -87.44737258313339 4.6657636903516755
    vertex 9.74244322503729 -80.16657702836828 0.0
    vertex 9.74244322503729 -87.40190771967671 4.988896386062783
  endloop
endfacet
facet normal 1.0 -0.0 -0.0
  outer loop
    vertex 9.74244322503729 -97.13713977684542 10.0
    vertex 9.74244322503729 -89.26721773232849 6.0880408518638225
    vertex 9.74244322503729 -80.16657702836828 10.0
  endloop
endfacet
facet normal 1.0 -0.0 -0.0
  outer loop
    vertex 9.74244322503729 -89.26721773232849 6.0880408518638225
    vertex 9.74244322503729 -97.13713977684542 10.0
    vertex 9.74244322503729 -89.52785556594485 5.891700044759346
  endloop
endfacet
facet normal 1.0 -0.0 -0.0
  outer loop
    vertex 9.74244322503729 -89.52785556594485 5.891700044759346
    vertex 9.74244322503729 -97.13713977684542 10.0
    vertex 9.74244322503729 -89.72879564053346 5.634591353208518
  endloop
endfacet
facet normal 1.0 -0.0 -0.0
  outer loop
    vertex 9.74244322503729 -89.72879564053346 5.634591353208518
    vertex 9.74244322503729 -97.13713977684542 10.0
    vertex 9.74244322503729 -89.85634422208034 5.3342363096483245
  endloop
endfacet
facet normal 1.0 -0.0 -0.0
  outer loop
    vertex 9.74244322503729 -89.85634422208034 5.3342363096483245
    vertex 9.74244322503729 -97.13713977684542 10.0
    vertex 9.74244322503729 -89.90180908553701 5.011103613937217
  endloop
endfacet
facet normal 1.0 -0.0 -0.0
  outer loop
    vertex 9.74244322503729 -80.16657702836828 10.0
    vertex 9.74244322503729 -89.26721773232849 6.0880408518638225
    vertex 9.74244322503729 -88.96464417732099 6.210233472986303
  endloop
endfacet
facet normal 1.0 -0.0 -0.0
  outer loop
    vertex 9.74244322503729 -80.16657702836828 10.0
    vertex 9.74244322503729 -88.96464417732099 6.210233472986303
    vertex 9.74244322503729 -88.64075478866964 6.249950682930145
  endloop
endfacet
facet normal 1.0 -0.0 -0.0
  outer loop
    vertex 9.74244322503729 -80.16657702836828 10.0
    vertex 9.74244322503729 -88.64075478866964 6.249950682930145
    vertex 9.74244322503729 -88.31762209295853 6.204485819473468
  endloop
endfacet
facet normal 1.0 -0.0 -0.0
  outer loop
    vertex 9.74244322503729 -80.16657702836828 10.0
    vertex 9.74244322503729 -88.31762209295853 6.204485819473468
    vertex 9.74244322503729 -88.01726704939834 6.076937237926605
  endloop
endfacet
facet normal 1.0 -0.0 -0.0
  outer loop
    vertex 9.74244322503729 -80.16657702836828 10.0
    vertex 9.74244322503729 -88.01726704939834 6.076937237926605
    vertex 9.74244322503729 -87.76015835784752 5.875997163337978
  endloop
endfacet
facet normal 1.0 -0.0 -0.0
  outer loop
    vertex 9.74244322503729 -80.16657702836828 10.0
    vertex 9.74244322503729 -87.76015835784752 5.875997163337978
    vertex 9.74244322503729 -87.56381755074304 5.6153593297216275
  endloop
endfacet
facet normal 1.0 -0.0 -0.0
  outer loop
    vertex 9.74244322503729 -80.16657702836828 10.0
    vertex 9.74244322503729 -87.56381755074304 5.6153593297216275
    vertex 9.74244322503729 -87.44162492962056 5.312785774714122
  endloop
endfacet
facet normal 1.0 -0.0 -0.0
  outer loop
    vertex 9.74244322503729 -80.16657702836828 10.0
    vertex 9.74244322503729 -87.44162492962056 5.312785774714122
    vertex 9.74244322503729 -87.40190771967671 4.988896386062783
  endloop
endfacet
facet normal 1.0 -0.0 -0.0
  outer loop
    vertex 9.74244322503729 -80.16657702836828 10.0
    vertex 9.74244322503729 -87.40190771967671 4.988896386062783
    vertex 9.74244322503729 -80.16657702836828 0.0
  endloop
endfacet
facet normal 1.0 0.0 0.0
  outer loop
    vertex 3.4924432250372903 -89.86209187559317 4.687214225285877
    vertex 3.4924432250372903 -89.85634422208034 5.3342363096483245
    vertex 3.4924432250372903 -89.90180908553701 5.011103613937217
  endloop
endfacet
facet normal 1.0 0.0 0.0
  outer loop
    vertex 3.4924432250372903 -89.85634422208034 5.3342363096483245
    vertex 3.4924432250372903 -89.86209187559317 4.687214225285877
    vertex 3.4924432250372903 -89.73989925447069 4.384640670278372
  endloop
endfacet
facet normal 1.0 0.0 0.0
  outer loop
    vertex 3.4924432250372903 -89.85634422208034 5.3342363096483245
    vertex 3.4924432250372903 -89.73989925447069 4.384640670278372
    vertex 3.4924432250372903 -89.72879564053346 5.634591353208518
  endloop
endfacet
facet normal 1.0 0.0 0.0
  outer loop
    vertex 3.4924432250372903 -89.72879564053346 5.634591353208518
    vertex 3.4924432250372903 -89.73989925447069 4.384640670278372
    vertex 3.4924432250372903 -89.54355844736621 4.124002836662021
  endloop
endfacet
facet normal 1.0 0.0 0.0
  outer loop
    vertex 3.4924432250372903 -89.72879564053346 5.634591353208518
    vertex 3.4924432250372903 -89.54355844736621 4.124002836662021
    vertex 3.4924432250372903 -89.52785556594485 5.891700044759346
  endloop
endfacet
facet normal 1.0 0.0 0.0
  outer loop
    vertex 3.4924432250372903 -89.52785556594485 5.891700044759346
    vertex 3.4924432250372903 -89.54355844736621 4.124002836662021
    vertex 3.4924432250372903 -89.28644975581538 3.9230627620733944
  endloop
endfacet
facet normal 1.0 0.0 0.0
  outer loop
    vertex 3.4924432250372903 -89.52785556594485 5.891700044759346
    vertex 3.4924432250372903 -89.28644975581538 3.9230627620733944
    vertex 3.4924432250372903 -89.26721773232849 6.0880408518638225
  endloop
endfacet
facet normal 1.0 0.0 0.0
  outer loop
    vertex 3.4924432250372903 -89.26721773232849 6.0880408518638225
    vertex 3.4924432250372903 -89.28644975581538 3.9230627620733944
    vertex 3.4924432250372903 -88.9860947122552 3.7955141805265318
  endloop
endfacet
facet normal 1.0 0.0 0.0
  outer loop
    vertex 3.4924432250372903 -89.26721773232849 6.0880408518638225
    vertex 3.4924432250372903 -88.9860947122552 3.7955141805265318
    vertex 3.4924432250372903 -88.96464417732099 6.210233472986303
  endloop
endfacet
facet normal 1.0 0.0 0.0
  outer loop
    vertex 3.4924432250372903 -88.96464417732099 6.210233472986303
    vertex 3.4924432250372903 -88.9860947122552 3.7955141805265318
    vertex 3.4924432250372903 -88.66296201654409 3.7500493170698546
  endloop
endfacet
facet normal 1.0 0.0 0.0
  outer loop
    vertex 3.4924432250372903 -88.96464417732099 6.210233472986303
    vertex 3.4924432250372903 -88.66296201654409 3.7500493170698546
    vertex 3.4924432250372903 -88.64075478866964 6.249950682930145
  endloop
endfacet
facet normal 1.0 0.0 0.0
  outer loop
    vertex 3.4924432250372903 -88.64075478866964 6.249950682930145
    vertex 3.4924432250372903 -88.66296201654409 3.7500493170698546
    vertex 3.4924432250372903 -88.33907262789273 3.7897665270136964
  endloop
endfacet
facet normal 1.0 0.0 0.0
  outer loop
    vertex 3.4924432250372903 -88.64075478866964 6.249950682930145
    vertex 3.4924432250372903 -88.33907262789273 3.7897665270136964
    vertex 3.4924432250372903 -88.31762209295853 6.204485819473468
  endloop
endfacet
facet normal 1.0 0.0 0.0
  outer loop
    vertex 3.4924432250372903 -88.31762209295853 6.204485819473468
    vertex 3.4924432250372903 -88.33907262789273 3.7897665270136964
    vertex 3.4924432250372903 -88.03649907288523 3.9119591481361775
  endloop
endfacet
facet normal 1.0 0.0 0.0
  outer loop
    vertex 3.4924432250372903 -88.31762209295853 6.204485819473468
    vertex 3.4924432250372903 -88.03649907288523 3.9119591481361775
    vertex 3.4924432250372903 -88.01726704939834 6.076937237926605
  endloop
endfacet
facet normal 1.0 0.0 0.0
  outer loop
    vertex 3.4924432250372903 -88.01726704939834 6.076937237926605
    vertex 3.4924432250372903 -88.03649907288523 3.9119591481361775
    vertex 3.4924432250372903 -87.77586123926888 4.108299955240654
  endloop
endfacet
facet normal 1.0 0.0 0.0
  outer loop
    vertex 3.4924432250372903 -88.01726704939834 6.076937237926605
    vertex 3.4924432250372903 -87.77586123926888 4.108299955240654
    vertex 3.4924432250372903 -87.76015835784752 5.875997163337978
  endloop
endfacet
facet normal 1.0 0.0 0.0
  outer loop
    vertex 3.4924432250372903 -87.76015835784752 5.875997163337978
    vertex 3.4924432250372903 -87.77586123926888 4.108299955240654
    vertex 3.4924432250372903 -87.57492116468026 4.365408646791482
  endloop
endfacet
facet normal 1.0 0.0 0.0
  outer loop
    vertex 3.4924432250372903 -87.76015835784752 5.875997163337978
    vertex 3.4924432250372903 -87.57492116468026 4.365408646791482
    vertex 3.4924432250372903 -87.56381755074304 5.6153593297216275
  endloop
endfacet
facet normal 1.0 0.0 0.0
  outer loop
    vertex 3.4924432250372903 -87.56381755074304 5.6153593297216275
    vertex 3.4924432250372903 -87.57492116468026 4.365408646791482
    vertex 3.4924432250372903 -87.44737258313339 4.6657636903516755
  endloop
endfacet
facet normal 1.0 0.0 0.0
  outer loop
    vertex 3.4924432250372903 -87.56381755074304 5.6153593297216275
    vertex 3.4924432250372903 -87.44737258313339 4.6657636903516755
    vertex 3.4924432250372903 -87.44162492962056 5.312785774714122
  endloop
endfacet
facet normal 1.0 0.0 0.0
  outer loop
    vertex 3.4924432250372903 -87.44162492962056 5.312785774714122
    vertex 3.4924432250372903 -87.44737258313339 4.6657636903516755
    vertex 3.4924432250372903 -87.40190771967671 4.988896386062783
  endloop
endfacet
facet normal -0.0 0.7879144780914887 -0.615784682509899
  outer loop
    vertex 3.4924432250372903 -89.52785556594485 5.891700044759346
    vertex 9.74244322503729 -89.72879564053346 5.634591353208518
    vertex 3.4924432250372903 -89.72879564053346 5.634591353208518
  endloop
endfacet
facet normal -0.0 0.7879144780914887 -0.615784682509899
  outer loop
    vertex 9.74244322503729 -89.72879564053346 5.634591353208518
    vertex 3.4924432250372903 -89.52785556594485 5.891700044759346
    vertex 9.74244322503729 -89.52785556594485 5.891700044759346
  endloop
endfacet
facet normal -0.0 0.9204437468116058 -0.3908750554274508
  outer loop
    vertex 3.4924432250372903 -89.72879564053346 5.634591353208518
    vertex 9.74244322503729 -89.85634422208034 5.3342363096483245
    vertex 3.4924432250372903 -89.85634422208034 5.3342363096483245
  endloop
endfacet
facet normal -0.0 0.9204437468116058 -0.3908750554274508
  outer loop
    vertex 9.74244322503729 -89.85634422208034 5.3342363096483245
    vertex 3.4924432250372903 -89.72879564053346 5.634591353208518
    vertex 9.74244322503729 -89.72879564053346 5.634591353208518
  endloop
endfacet
facet normal -0.0 0.9902462952917369 -0.13932793926915787
  outer loop
    vertex 3.4924432250372903 -89.85634422208034 5.3342363096483245
    vertex 9.74244322503729 -89.90180908553701 5.011103613937217
    vertex 3.4924432250372903 -89.90180908553701 5.011103613937217
  endloop
endfacet
facet normal -0.0 0.9902462952917369 -0.13932793926915787
  outer loop
    vertex 9.74244322503729 -89.90180908553701 5.011103613937217
    vertex 3.4924432250372903 -89.85634422208034 5.3342363096483245
    vertex 9.74244322503729 -89.85634422208034 5.3342363096483245
  endloop
endfacet
facet normal 0.0 0.9925651952071075 0.12171414569998329
  outer loop
    vertex 3.4924432250372903 -89.90180908553701 5.011103613937217
    vertex 9.74244322503729 -89.86209187559317 4.687214225285877
    vertex 3.4924432250372903 -89.86209187559317 4.687214225285877
  endloop
endfacet
facet normal 0.0 0.9925651952071075 0.12171414569998329
  outer loop
    vertex 9.74244322503729 -89.86209187559317 4.687214225285877
    vertex 3.4924432250372903 -89.90180908553701 5.011103613937217
    vertex 9.74244322503729 -89.90180908553701 5.011103613937217
  endloop
endfacet
facet normal 0.0 0.92724241736065 0.3744616127818421
  outer loop
    vertex 3.4924432250372903 -89.86209187559317 4.687214225285877
    vertex 9.74244322503729 -89.73989925447069 4.384640670278372
    vertex 3.4924432250372903 -89.73989925447069 4.384640670278372
  endloop
endfacet
facet normal 0.0 0.92724241736065 0.3744616127818421
  outer loop
    vertex 9.74244322503729 -89.73989925447069 4.384640670278372
    vertex 3.4924432250372903 -89.86209187559317 4.687214225285877
    vertex 9.74244322503729 -89.86209187559317 4.687214225285877
  endloop
endfacet
facet normal 0.0 0.7987296011116137 0.6016901397796729
  outer loop
    vertex 3.4924432250372903 -89.73989925447069 4.384640670278372
    vertex 9.74244322503729 -89.54355844736621 4.124002836662021
    vertex 3.4924432250372903 -89.54355844736621 4.124002836662021
  endloop
endfacet
facet normal 0.0 0.7987296011116137 0.6016901397796729
  outer loop
    vertex 9.74244322503729 -89.54355844736621 4.124002836662021
    vertex 3.4924432250372903 -89.73989925447069 4.384640670278372
    vertex 9.74244322503729 -89.73989925447069 4.384640670278372
  endloop
endfacet
facet normal 0.0 0.6157846825099048 0.7879144780914841
  outer loop
    vertex 9.74244322503729 -89.54355844736621 4.124002836662021
    vertex 3.4924432250372903 -89.28644975581538 3.9230627620733944
    vertex 3.4924432250372903 -89.54355844736621 4.124002836662021
  endloop
endfacet
facet normal 0.0 0.6157846825099048 0.7879144780914841
  outer loop
    vertex 3.4924432250372903 -89.28644975581538 3.9230627620733944
    vertex 9.74244322503729 -89.54355844736621 4.124002836662021
    vertex 9.74244322503729 -89.28644975581538 3.9230627620733944
  endloop
endfacet
facet normal 0.0 0.3908750554274385 0.920443746811611
  outer loop
    vertex 9.74244322503729 -89.28644975581538 3.9230627620733944
    vertex 3.4924432250372903 -88.9860947122552 3.7955141805265318
    vertex 3.4924432250372903 -89.28644975581538 3.9230627620733944
  endloop
endfacet
facet normal 0.0 0.3908750554274385 0.920443746811611
  outer loop
    vertex 3.4924432250372903 -88.9860947122552 3.7955141805265318
    vertex 9.74244322503729 -89.28644975581538 3.9230627620733944
    vertex 9.74244322503729 -88.9860947122552 3.7955141805265318
  endloop
endfacet
facet normal 0.0 0.13932793926916576 0.9902462952917358
  outer loop
    vertex 9.74244322503729 -88.9860947122552 3.7955141805265318
    vertex 3.4924432250372903 -88.66296201654409 3.7500493170698546
    vertex 3.4924432250372903 -88.9860947122552 3.7955141805265318
  endloop
endfacet
facet normal 0.0 0.13932793926916576 0.9902462952917358
  outer loop
    vertex 3.4924432250372903 -88.66296201654409 3.7500493170698546
    vertex 9.74244322503729 -88.9860947122552 3.7955141805265318
    vertex 9.74244322503729 -88.66296201654409 3.7500493170698546
  endloop
endfacet
facet normal -0.0 -0.12171414569999106 0.9925651952071065
  outer loop
    vertex 9.74244322503729 -88.66296201654409 3.7500493170698546
    vertex 3.4924432250372903 -88.33907262789273 3.7897665270136964
    vertex 3.4924432250372903 -88.66296201654409 3.7500493170698546
  endloop
endfacet
facet normal -0.0 -0.12171414569999106 0.9925651952071065
  outer loop
    vertex 3.4924432250372903 -88.33907262789273 3.7897665270136964
    vertex 9.74244322503729 -88.66296201654409 3.7500493170698546
    vertex 9.74244322503729 -88.33907262789273 3.7897665270136964
  endloop
endfacet
facet normal -0.0 -0.37446161278184065 0.9272424173606505
  outer loop
    vertex 9.74244322503729 -88.33907262789273 3.7897665270136964
    vertex 3.4924432250372903 -88.03649907288523 3.9119591481361775
    vertex 3.4924432250372903 -88.33907262789273 3.7897665270136964
  endloop
endfacet
facet normal -0.0 -0.37446161278184065 0.9272424173606505
  outer loop
    vertex 3.4924432250372903 -88.03649907288523 3.9119591481361775
    vertex 9.74244322503729 -88.33907262789273 3.7897665270136964
    vertex 9.74244322503729 -88.03649907288523 3.9119591481361775
  endloop
endfacet
facet normal -0.0 -0.6016901397796658 0.7987296011116193
  outer loop
    vertex 9.74244322503729 -88.03649907288523 3.9119591481361775
    vertex 3.4924432250372903 -87.77586123926888 4.108299955240654
    vertex 3.4924432250372903 -88.03649907288523 3.9119591481361775
  endloop
endfacet
facet normal -0.0 -0.6016901397796658 0.7987296011116193
  outer loop
    vertex 3.4924432250372903 -87.77586123926888 4.108299955240654
    vertex 9.74244322503729 -88.03649907288523 3.9119591481361775
    vertex 9.74244322503729 -87.77586123926888 4.108299955240654
  endloop
endfacet
facet normal -0.0 -0.7879144780914887 0.615784682509899
  outer loop
    vertex 9.74244322503729 -87.57492116468026 4.365408646791482
    vertex 3.4924432250372903 -87.77586123926888 4.108299955240654
    vertex 9.74244322503729 -87.77586123926888 4.108299955240654
  endloop
endfacet
facet normal -0.0 -0.7879144780914887 0.615784682509899
  outer loop
    vertex 3.4924432250372903 -87.77586123926888 4.108299955240654
    vertex 9.74244322503729 -87.57492116468026 4.365408646791482
    vertex 3.4924432250372903 -87.57492116468026 4.365408646791482
  endloop
endfacet
facet normal -0.0 -0.9204437468116058 0.3908750554274508
  outer loop
    vertex 9.74244322503729 -87.44737258313339 4.6657636903516755
    vertex 3.4924432250372903 -87.57492116468026 4.365408646791482
    vertex 9.74244322503729 -87.57492116468026 4.365408646791482
  endloop
endfacet
facet normal -0.0 -0.9204437468116058 0.3908750554274508
  outer loop
    vertex 3.4924432250372903 -87.57492116468026 4.365408646791482
    vertex 9.74244322503729 -87.44737258313339 4.6657636903516755
    vertex 3.4924432250372903 -87.44737258313339 4.6657636903516755
  endloop
endfacet
facet normal -0.0 -0.9902462952917369 0.13932793926915787
  outer loop
    vertex 9.74244322503729 -87.40190771967671 4.988896386062783
    vertex 3.4924432250372903 -87.44737258313339 4.6657636903516755
    vertex 9.74244322503729 -87.44737258313339 4.6657636903516755
  endloop
endfacet
facet normal -0.0 -0.9902462952917369 0.13932793926915787
  outer loop
    vertex 3.4924432250372903 -87.44737258313339 4.6657636903516755
    vertex 9.74244322503729 -87.40190771967671 4.988896386062783
    vertex 3.4924432250372903 -87.40190771967671 4.988896386062783
  endloop
endfacet
facet normal -0.0 -0.9925651952071074 -0.12171414569998354
  outer loop
    vertex 9.74244322503729 -87.44162492962056 5.312785774714122
    vertex 3.4924432250372903 -87.40190771967671 4.988896386062783
    vertex 9.74244322503729 -87.40190771967671 4.988896386062783
  endloop
endfacet
facet normal -0.0 -0.9925651952071074 -0.12171414569998354
  outer loop
    vertex 3.4924432250372903 -87.40190771967671 4.988896386062783
    vertex 9.74244322503729 -87.44162492962056 5.312785774714122
    vertex 3.4924432250372903 -87.44162492962056 5.312785774714122
  endloop
endfacet
facet normal -0.0 -0.92724241736065 -0.3744616127818421
  outer loop
    vertex 9.74244322503729 -87.56381755074304 5.6153593297216275
    vertex 3.4924432250372903 -87.44162492962056 5.312785774714122
    vertex 9.74244322503729 -87.44162492962056 5.312785774714122
  endloop
endfacet
facet normal -0.0 -0.92724241736065 -0.3744616127818421
  outer loop
    vertex 3.4924432250372903 -87.44162492962056 5.312785774714122
    vertex 9.74244322503729 -87.56381755074304 5.6153593297216275
    vertex 3.4924432250372903 -87.56381755074304 5.6153593297216275
  endloop
endfacet
facet normal -0.0 -0.7987296011116137 -0.6016901397796729
  outer loop
    vertex 9.74244322503729 -87.76015835784752 5.875997163337978
    vertex 3.4924432250372903 -87.56381755074304 5.6153593297216275
    vertex 9.74244322503729 -87.56381755074304 5.6153593297216275
  endloop
endfacet
facet normal -0.0 -0.7987296011116137 -0.6016901397796729
  outer loop
    vertex 3.4924432250372903 -87.56381755074304 5.6153593297216275
    vertex 9.74244322503729 -87.76015835784752 5.875997163337978
    vertex 3.4924432250372903 -87.76015835784752 5.875997163337978
  endloop
endfacet
facet normal -0.0 -0.6157846825099048 -0.7879144780914841
  outer loop
    vertex 9.74244322503729 -87.76015835784752 5.875997163337978
    vertex 3.4924432250372903 -88.01726704939834 6.076937237926605
    vertex 3.4924432250372903 -87.76015835784752 5.875997163337978
  endloop
endfacet
facet normal -0.0 -0.6157846825099048 -0.7879144780914841
  outer loop
    vertex 3.4924432250372903 -88.01726704939834 6.076937237926605
    vertex 9.74244322503729 -87.76015835784752 5.875997163337978
    vertex 9.74244322503729 -88.01726704939834 6.076937237926605
  endloop
endfacet
facet normal -0.0 -0.3908750554274403 -0.9204437468116101
  outer loop
    vertex 9.74244322503729 -88.01726704939834 6.076937237926605
    vertex 3.4924432250372903 -88.31762209295853 6.204485819473468
    vertex 3.4924432250372903 -88.01726704939834 6.076937237926605
  endloop
endfacet
facet normal -0.0 -0.3908750554274403 -0.9204437468116101
  outer loop
    vertex 3.4924432250372903 -88.31762209295853 6.204485819473468
    vertex 9.74244322503729 -88.01726704939834 6.076937237926605
    vertex 9.74244322503729 -88.31762209295853 6.204485819473468
  endloop
endfacet
facet normal -0.0 -0.13932793926916576 -0.9902462952917358
  outer loop
    vertex 9.74244322503729 -88.31762209295853 6.204485819473468
    vertex 3.4924432250372903 -88.64075478866964 6.249950682930145
    vertex 3.4924432250372903 -88.31762209295853 6.204485819473468
  endloop
endfacet
facet normal -0.0 -0.13932793926916576 -0.9902462952917358
  outer loop
    vertex 3.4924432250372903 -88.64075478866964 6.249950682930145
    vertex 9.74244322503729 -88.31762209295853 6.204485819473468
    vertex 9.74244322503729 -88.64075478866964 6.249950682930145
  endloop
endfacet
facet normal -0.0 0.12171414569999106 -0.9925651952071065
  outer loop
    vertex 9.74244322503729 -88.64075478866964 6.249950682930145
    vertex 3.4924432250372903 -88.96464417732099 6.210233472986303
    vertex 3.4924432250372903 -88.64075478866964 6.249950682930145
  endloop
endfacet
facet normal -0.0 0.12171414569999106 -0.9925651952071065
  outer loop
    vertex 3.4924432250372903 -88.96464417732099 6.210233472986303
    vertex 9.74244322503729 -88.64075478866964 6.249950682930145
    vertex 9.74244322503729 -88.96464417732099 6.210233472986303
  endloop
endfacet
facet normal -0.0 0.37446161278184065 -0.9272424173606505
  outer loop
    vertex 9.74244322503729 -88.96464417732099 6.210233472986303
    vertex 3.4924432250372903 -89.26721773232849 6.0880408518638225
    vertex 3.4924432250372903 -88.96464417732099 6.210233472986303
  endloop
endfacet
facet normal -0.0 0.37446161278184065 -0.9272424173606505
  outer loop
    vertex 3.4924432250372903 -89.26721773232849 6.0880408518638225
    vertex 9.74244322503729 -88.96464417732099 6.210233472986303
    vertex 9.74244322503729 -89.26721773232849 6.0880408518638225
  endloop
endfacet
facet normal -0.0 0.6016901397796658 -0.7987296011116193
  outer loop
    vertex 9.74244322503729 -89.26721773232849 6.0880408518638225
    vertex 3.4924432250372903 -89.52785556594485 5.891700044759346
    vertex 3.4924432250372903 -89.26721773232849 6.0880408518638225
  endloop
endfacet
facet normal -0.0 0.6016901397796658 -0.7987296011116193
  outer loop
    vertex 3.4924432250372903 -89.52785556594485 5.891700044759346
    vertex 9.74244322503729 -89.26721773232849 6.0880408518638225
    vertex 9.74244322503729 -89.52785556594485 5.891700044759346
  endloop
endfacet
endsolid FM1 mount_v1
